<svg id="svg" version="1.1" xmlns="http://www.w3.org/2000/svg" xmlns:xlink="http://www.w3.org/1999/xlink" width="400" height="458.49802371541506" viewBox="0, 0, 400,458.49802371541506"><g id="svgg"><path id="path0" d="M238.700 15.633 C 238.058 16.336,237.383 16.400,230.600 16.400 C 224.541 16.400,223.200 16.501,223.200 16.957 C 223.200 17.780,222.282 18.000,218.856 18.000 C 216.273 18.000,215.668 18.129,215.093 18.800 C 214.509 19.482,213.913 19.600,211.047 19.600 C 208.428 19.600,207.635 19.733,207.455 20.200 C 207.281 20.654,206.545 20.800,204.427 20.800 C 202.038 20.800,201.566 20.917,201.200 21.600 C 200.835 22.282,200.362 22.400,198.000 22.400 C 195.638 22.400,195.165 22.518,194.800 23.200 C 194.461 23.834,193.962 24.000,192.400 24.000 C 190.838 24.000,190.339 24.166,190.000 24.800 C 189.721 25.321,189.162 25.600,188.400 25.600 C 187.638 25.600,187.079 25.879,186.800 26.400 C 186.465 27.027,185.962 27.200,184.482 27.200 C 183.026 27.200,182.478 27.383,182.093 28.000 C 181.790 28.485,181.160 28.800,180.493 28.800 C 179.826 28.800,179.196 29.115,178.893 29.600 C 178.503 30.224,177.960 30.400,176.424 30.400 C 174.805 30.400,174.409 30.543,174.200 31.200 C 173.988 31.868,173.595 32.000,171.820 32.000 C 170.030 32.000,169.660 32.127,169.484 32.800 C 169.310 33.467,168.938 33.600,167.252 33.600 C 165.638 33.600,165.142 33.762,164.800 34.400 C 164.461 35.034,163.962 35.200,162.400 35.200 C 160.838 35.200,160.339 35.366,160.000 36.000 C 159.721 36.521,159.162 36.800,158.400 36.800 C 157.638 36.800,157.079 37.079,156.800 37.600 C 156.435 38.282,155.962 38.400,153.600 38.400 C 151.238 38.400,150.765 38.518,150.400 39.200 C 150.065 39.827,149.562 40.000,148.082 40.000 C 146.626 40.000,146.078 40.183,145.693 40.800 C 145.307 41.418,144.760 41.600,143.293 41.600 C 141.826 41.600,141.279 41.782,140.893 42.400 C 140.473 43.072,139.960 43.200,137.693 43.200 C 135.426 43.200,134.912 43.328,134.493 44.000 C 134.073 44.672,133.560 44.800,131.293 44.800 C 129.026 44.800,128.512 44.928,128.093 45.600 C 127.680 46.262,127.160 46.400,125.086 46.400 C 123.073 46.400,122.443 46.558,121.893 47.200 C 121.343 47.843,120.713 48.000,118.693 48.000 C 116.673 48.000,116.043 48.157,115.493 48.800 C 114.949 49.435,114.313 49.600,112.404 49.600 C 110.533 49.600,109.823 49.777,109.200 50.400 C 108.662 50.938,107.867 51.200,106.773 51.200 C 105.432 51.200,104.914 51.446,103.826 52.600 C 103.100 53.370,102.116 54.000,101.639 54.000 C 100.436 54.000,95.201 59.270,95.196 60.486 C 95.194 61.047,94.578 61.940,93.600 62.800 C 92.483 63.782,92.007 64.524,92.004 65.286 C 92.001 65.960,91.696 66.534,91.200 66.800 C 90.679 67.079,90.400 67.638,90.400 68.400 C 90.400 69.162,90.121 69.721,89.600 70.000 C 89.073 70.282,88.800 70.838,88.800 71.627 C 88.800 72.323,88.549 72.922,88.200 73.055 C 87.792 73.212,87.600 73.850,87.600 75.047 C 87.600 76.313,87.375 77.000,86.800 77.493 C 86.157 78.043,86.000 78.673,86.000 80.693 C 86.000 82.713,85.843 83.343,85.200 83.893 C 84.472 84.516,84.400 85.073,84.400 90.089 C 84.400 95.067,84.323 95.677,83.600 96.400 C 82.933 97.067,82.800 97.733,82.800 100.400 C 82.800 103.067,82.667 103.733,82.000 104.400 C 81.377 105.023,81.200 105.733,81.200 107.604 C 81.200 109.513,81.035 110.149,80.400 110.693 C 79.757 111.243,79.600 111.873,79.600 113.893 C 79.600 115.913,79.443 116.543,78.800 117.093 C 78.157 117.643,78.000 118.273,78.000 120.293 C 78.000 122.313,77.843 122.943,77.200 123.493 C 76.558 124.043,76.400 124.673,76.400 126.686 C 76.400 128.760,76.262 129.280,75.600 129.693 C 74.928 130.112,74.800 130.626,74.800 132.893 C 74.800 135.160,74.672 135.673,74.000 136.093 C 73.328 136.512,73.200 137.026,73.200 139.293 C 73.200 141.560,73.072 142.073,72.400 142.493 C 71.729 142.912,71.600 143.426,71.600 145.682 C 71.600 147.962,71.478 148.437,70.800 148.800 C 70.118 149.165,70.000 149.638,70.000 152.000 C 70.000 154.362,69.882 154.835,69.200 155.200 C 68.518 155.565,68.400 156.038,68.400 158.400 C 68.400 160.762,68.282 161.235,67.600 161.600 C 66.966 161.939,66.800 162.438,66.800 164.000 C 66.800 165.562,66.634 166.061,66.000 166.400 C 65.327 166.760,65.200 167.238,65.200 169.411 C 65.200 171.560,65.066 172.077,64.400 172.493 C 63.728 172.912,63.600 173.426,63.600 175.693 C 63.600 177.960,63.472 178.473,62.800 178.893 C 62.099 179.330,62.000 179.826,62.000 182.882 C 62.000 185.962,61.906 186.422,61.200 186.800 C 59.952 187.468,59.952 209.332,61.200 210.000 C 61.878 210.363,62.000 210.838,62.000 213.118 C 62.000 215.374,62.129 215.888,62.800 216.307 C 63.424 216.697,63.600 217.240,63.600 218.776 C 63.600 220.395,63.743 220.791,64.400 221.000 C 65.098 221.222,65.200 221.605,65.200 224.013 C 65.200 226.362,65.319 226.835,66.000 227.200 C 66.521 227.479,66.800 228.038,66.800 228.800 C 66.800 229.562,67.079 230.121,67.600 230.400 C 68.121 230.679,68.400 231.238,68.400 232.000 C 68.400 232.762,68.679 233.321,69.200 233.600 C 69.721 233.879,70.000 234.438,70.000 235.200 C 70.000 235.962,70.279 236.521,70.800 236.800 C 71.321 237.079,71.600 237.638,71.600 238.400 C 71.600 239.162,71.879 239.721,72.400 240.000 C 72.921 240.279,73.200 240.838,73.200 241.600 C 73.200 242.362,73.479 242.921,74.000 243.200 C 74.521 243.479,74.800 244.038,74.800 244.800 C 74.800 245.562,75.079 246.121,75.600 246.400 C 76.099 246.667,76.400 247.238,76.400 247.918 C 76.400 248.574,76.718 249.206,77.200 249.507 C 77.872 249.927,78.000 250.440,78.000 252.707 C 78.000 254.974,78.128 255.488,78.800 255.907 C 79.285 256.210,79.600 256.840,79.600 257.507 C 79.600 258.174,79.915 258.804,80.400 259.107 C 81.018 259.493,81.200 260.040,81.200 261.507 C 81.200 262.974,81.382 263.521,82.000 263.907 C 82.485 264.210,82.800 264.840,82.800 265.507 C 82.800 266.174,83.115 266.804,83.600 267.107 C 84.276 267.529,84.400 268.040,84.400 270.403 C 84.400 272.527,84.534 273.200,84.957 273.200 C 85.565 273.200,86.000 274.039,86.000 275.213 C 86.000 275.624,86.308 276.133,86.685 276.344 C 87.204 276.634,87.409 277.419,87.532 279.594 C 87.642 281.547,87.870 282.529,88.247 282.673 C 88.643 282.825,88.800 283.663,88.800 285.629 C 88.800 287.962,88.919 288.436,89.600 288.800 C 90.282 289.165,90.400 289.638,90.400 292.000 C 90.400 294.362,90.518 294.835,91.200 295.200 C 91.882 295.565,92.000 296.038,92.000 298.400 C 92.000 300.762,92.118 301.235,92.800 301.600 C 93.482 301.965,93.600 302.438,93.600 304.800 C 93.600 307.162,93.718 307.635,94.400 308.000 C 94.899 308.267,95.200 308.838,95.200 309.518 C 95.200 310.174,95.518 310.806,96.000 311.107 C 96.672 311.527,96.800 312.040,96.800 314.307 C 96.800 316.574,96.928 317.088,97.600 317.507 C 98.224 317.897,98.400 318.440,98.400 319.976 C 98.400 321.595,98.543 321.991,99.200 322.200 C 99.640 322.340,100.000 322.700,100.000 323.000 C 100.000 323.300,100.360 323.660,100.800 323.800 C 101.240 323.940,101.600 324.312,101.600 324.627 C 101.600 324.942,101.858 325.200,102.173 325.200 C 102.488 325.200,102.860 325.560,103.000 326.000 C 103.140 326.440,103.500 326.800,103.800 326.800 C 104.100 326.800,104.460 327.160,104.600 327.600 C 104.740 328.040,105.100 328.400,105.400 328.400 C 105.700 328.400,106.060 328.760,106.200 329.200 C 106.340 329.640,106.700 330.000,107.000 330.000 C 107.300 330.000,107.660 330.360,107.800 330.800 C 107.940 331.240,108.300 331.600,108.600 331.600 C 108.900 331.600,109.260 331.960,109.400 332.400 C 109.540 332.840,109.900 333.200,110.200 333.200 C 110.500 333.200,110.860 333.560,111.000 334.000 C 111.140 334.440,111.500 334.800,111.800 334.800 C 112.100 334.800,112.460 335.160,112.600 335.600 C 112.788 336.191,113.205 336.400,114.200 336.400 C 115.195 336.400,115.612 336.609,115.800 337.200 C 115.940 337.640,116.300 338.000,116.600 338.000 C 116.900 338.000,117.260 338.360,117.400 338.800 C 117.540 339.240,117.814 339.600,118.009 339.600 C 118.470 339.600,120.400 341.530,120.400 341.991 C 120.400 342.186,120.760 342.460,121.200 342.600 C 121.640 342.740,122.000 343.112,122.000 343.427 C 122.000 343.766,122.394 344.000,122.967 344.000 C 124.330 344.000,125.200 344.396,125.200 345.016 C 125.200 345.307,125.560 345.660,126.000 345.800 C 126.440 345.940,126.800 346.300,126.800 346.600 C 126.800 346.900,127.160 347.260,127.600 347.400 C 128.040 347.540,128.400 347.912,128.400 348.227 C 128.400 348.597,128.825 348.800,129.597 348.800 C 130.360 348.800,130.974 349.090,131.293 349.600 C 131.596 350.085,132.226 350.400,132.893 350.400 C 133.560 350.400,134.190 350.715,134.493 351.200 C 134.796 351.685,135.426 352.000,136.093 352.000 C 136.760 352.000,137.390 352.315,137.693 352.800 C 137.996 353.285,138.626 353.600,139.293 353.600 C 139.960 353.600,140.590 353.915,140.893 354.400 C 141.196 354.885,141.826 355.200,142.493 355.200 C 143.160 355.200,143.790 355.515,144.093 356.000 C 144.396 356.485,145.026 356.800,145.693 356.800 C 146.360 356.800,146.990 357.115,147.293 357.600 C 147.712 358.271,148.226 358.400,150.482 358.400 C 152.762 358.400,153.237 358.522,153.600 359.200 C 154.006 359.959,154.438 360.000,162.000 360.000 C 169.562 360.000,169.994 359.959,170.400 359.200 C 170.655 358.723,171.238 358.400,171.842 358.400 C 172.596 358.400,173.865 357.377,176.800 354.400 C 179.349 351.816,181.046 350.400,181.598 350.400 C 182.130 350.400,183.666 349.194,185.673 347.200 C 187.445 345.440,189.233 344.000,189.647 344.000 C 190.061 344.000,190.760 343.640,191.200 343.200 C 191.640 342.760,192.358 342.400,192.796 342.400 C 193.923 342.400,211.600 324.703,211.600 323.574 C 211.600 323.079,212.508 321.844,213.800 320.583 C 215.010 319.401,216.000 318.092,216.000 317.672 C 216.000 317.227,218.330 314.563,221.600 311.270 C 225.807 307.034,227.200 305.382,227.200 304.630 C 227.200 304.038,227.527 303.453,228.000 303.200 C 228.521 302.921,228.800 302.362,228.800 301.600 C 228.800 300.838,229.079 300.279,229.600 300.000 C 230.121 299.721,230.400 299.162,230.400 298.400 C 230.400 297.638,230.679 297.079,231.200 296.800 C 231.721 296.521,232.000 295.962,232.000 295.200 C 232.000 294.438,232.279 293.879,232.800 293.600 C 233.332 293.315,233.600 292.762,233.600 291.948 C 233.600 291.062,233.820 290.668,234.400 290.516 C 234.997 290.360,235.200 289.970,235.200 288.980 C 235.200 288.005,235.412 287.587,236.000 287.400 C 236.591 287.212,236.800 286.795,236.800 285.800 C 236.800 284.805,237.009 284.388,237.600 284.200 C 238.160 284.022,238.400 283.595,238.400 282.776 C 238.400 282.040,238.696 281.422,239.200 281.107 C 239.640 280.832,240.000 280.393,240.000 280.131 C 240.000 279.868,240.360 279.540,240.800 279.400 C 241.360 279.222,241.600 278.795,241.600 277.976 C 241.600 277.240,241.896 276.622,242.400 276.307 C 242.882 276.006,243.200 275.374,243.200 274.718 C 243.200 274.038,243.501 273.467,244.000 273.200 C 244.485 272.941,244.800 272.362,244.800 271.733 C 244.800 271.064,245.298 270.224,246.200 269.374 C 246.970 268.648,247.600 267.682,247.600 267.227 C 247.600 266.772,247.960 266.040,248.400 265.600 C 248.840 265.160,249.200 264.440,249.200 264.000 C 249.200 263.560,249.560 262.840,250.000 262.400 C 250.563 261.837,250.800 261.067,250.800 259.803 C 250.800 258.440,250.993 257.886,251.600 257.507 C 252.085 257.204,252.400 256.574,252.400 255.907 C 252.400 255.240,252.715 254.610,253.200 254.307 C 253.818 253.921,254.000 253.374,254.000 251.907 C 254.000 250.440,254.182 249.893,254.800 249.507 C 255.282 249.206,255.600 248.574,255.600 247.918 C 255.600 247.238,255.901 246.667,256.400 246.400 C 256.921 246.121,257.200 245.562,257.200 244.800 C 257.200 244.038,257.479 243.479,258.000 243.200 C 258.634 242.861,258.800 242.362,258.800 240.800 C 258.800 239.238,258.966 238.739,259.600 238.400 C 260.121 238.121,260.400 237.562,260.400 236.800 C 260.400 236.038,260.679 235.479,261.200 235.200 C 261.721 234.921,262.000 234.362,262.000 233.600 C 262.000 232.838,262.279 232.279,262.800 232.000 C 263.321 231.721,263.600 231.162,263.600 230.400 C 263.600 229.638,263.879 229.079,264.400 228.800 C 264.917 228.523,265.200 227.962,265.200 227.213 C 265.200 226.405,265.442 225.977,266.000 225.800 C 266.591 225.612,266.800 225.195,266.800 224.200 C 266.800 223.205,267.009 222.788,267.600 222.600 C 268.160 222.422,268.400 221.995,268.400 221.176 C 268.400 220.440,268.696 219.822,269.200 219.507 C 269.640 219.232,270.000 218.793,270.000 218.531 C 270.000 218.268,270.360 217.940,270.800 217.800 C 271.360 217.622,271.600 217.195,271.600 216.376 C 271.600 215.640,271.896 215.022,272.400 214.707 C 272.869 214.414,273.200 213.774,273.200 213.160 C 273.200 212.431,273.686 211.700,274.798 210.756 C 275.833 209.878,276.397 209.064,276.398 208.447 C 276.399 207.878,276.964 206.963,277.800 206.174 C 278.570 205.448,279.200 204.480,279.200 204.024 C 279.200 203.524,280.471 201.906,282.400 199.951 C 284.272 198.054,285.600 196.373,285.600 195.900 C 285.600 194.790,299.200 181.200,300.312 181.200 C 300.775 181.200,302.189 180.157,303.568 178.800 C 304.943 177.446,306.361 176.400,306.822 176.400 C 307.346 176.400,309.831 174.178,313.756 170.200 C 317.743 166.158,320.162 164.000,320.703 164.000 C 321.238 164.000,323.511 162.010,327.102 158.400 C 330.723 154.759,332.964 152.800,333.508 152.800 C 334.638 152.800,372.800 114.634,372.800 113.505 C 372.800 113.060,373.852 111.698,375.200 110.400 C 376.732 108.924,377.600 107.763,377.600 107.191 C 377.600 106.685,378.209 105.720,379.000 104.974 C 379.770 104.248,380.400 103.282,380.400 102.827 C 380.400 102.372,380.760 101.640,381.200 101.200 C 382.267 100.133,382.450 88.800,381.400 88.800 C 381.070 88.800,380.800 88.630,380.800 88.422 C 380.800 87.556,375.540 82.800,374.581 82.800 C 374.040 82.800,373.385 82.444,373.107 82.000 C 372.630 81.236,372.174 81.200,362.993 81.200 C 353.873 81.200,353.343 81.241,352.693 82.000 C 352.110 82.681,351.513 82.800,348.693 82.800 C 345.873 82.800,345.276 82.919,344.693 83.600 C 344.316 84.040,343.646 84.400,343.204 84.400 C 342.762 84.400,342.040 84.760,341.600 85.200 C 341.043 85.757,340.267 86.000,339.043 86.000 C 337.850 86.000,337.212 86.193,337.055 86.600 C 336.922 86.949,336.323 87.200,335.627 87.200 C 334.838 87.200,334.282 87.473,334.000 88.000 C 333.721 88.521,333.162 88.800,332.400 88.800 C 331.638 88.800,331.079 89.079,330.800 89.600 C 330.465 90.225,329.960 90.401,328.486 90.404 C 326.791 90.407,326.459 90.569,325.200 92.000 C 324.218 93.117,323.476 93.593,322.714 93.596 C 322.040 93.599,321.466 93.904,321.200 94.400 C 320.921 94.921,320.362 95.200,319.600 95.200 C 318.838 95.200,318.279 95.479,318.000 96.000 C 317.747 96.472,317.162 96.800,316.573 96.800 C 315.921 96.800,315.066 97.354,314.104 98.400 C 313.198 99.385,312.276 100.000,311.704 100.000 C 311.132 100.000,310.210 100.615,309.304 101.600 C 308.398 102.585,307.476 103.200,306.904 103.200 C 306.332 103.200,305.410 103.815,304.504 104.800 C 303.598 105.785,302.676 106.400,302.104 106.400 C 301.532 106.400,300.610 107.015,299.704 108.000 C 298.839 108.941,297.869 109.600,297.348 109.600 C 296.512 109.600,292.800 112.856,292.800 113.589 C 292.800 114.023,291.761 114.400,290.567 114.400 C 289.994 114.400,289.600 114.634,289.600 114.973 C 289.600 115.288,289.240 115.660,288.800 115.800 C 288.360 115.940,288.000 116.214,288.000 116.409 C 288.000 116.870,286.070 118.800,285.609 118.800 C 285.414 118.800,285.140 119.160,285.000 119.600 C 284.812 120.191,284.395 120.400,283.400 120.400 C 282.405 120.400,281.988 120.609,281.800 121.200 C 281.660 121.640,281.300 122.000,281.000 122.000 C 280.700 122.000,280.340 122.360,280.200 122.800 C 280.012 123.391,279.595 123.600,278.600 123.600 C 277.605 123.600,277.188 123.809,277.000 124.400 C 276.860 124.840,276.500 125.200,276.200 125.200 C 275.900 125.200,275.540 125.560,275.400 126.000 C 275.226 126.548,274.795 126.800,274.029 126.800 C 273.220 126.800,272.540 127.240,271.556 128.398 C 270.649 129.467,269.869 129.998,269.200 130.002 C 268.540 130.006,267.724 130.549,266.800 131.600 C 265.818 132.717,265.076 133.193,264.314 133.196 C 263.640 133.199,263.066 133.504,262.800 134.000 C 262.534 134.496,261.960 134.801,261.286 134.804 C 260.524 134.807,259.782 135.283,258.800 136.400 C 257.818 137.517,257.076 137.993,256.314 137.996 C 255.640 137.999,255.066 138.304,254.800 138.800 C 254.521 139.321,253.962 139.600,253.200 139.600 C 252.438 139.600,251.879 139.879,251.600 140.400 C 251.321 140.921,250.762 141.200,250.000 141.200 C 249.238 141.200,248.679 141.479,248.400 142.000 C 248.150 142.468,247.562 142.800,246.986 142.800 C 246.444 142.800,245.640 143.160,245.200 143.600 C 244.760 144.040,244.040 144.400,243.600 144.400 C 243.160 144.400,242.440 144.760,242.000 145.200 C 241.560 145.640,240.840 146.000,240.400 146.000 C 239.960 146.000,239.240 146.360,238.800 146.800 C 238.360 147.240,237.640 147.600,237.200 147.600 C 236.760 147.600,236.040 147.960,235.600 148.400 C 235.160 148.840,234.440 149.200,234.000 149.200 C 233.560 149.200,232.840 149.560,232.400 150.000 C 231.843 150.557,231.067 150.800,229.843 150.800 C 228.650 150.800,228.012 150.993,227.855 151.400 C 227.693 151.823,227.034 152.000,225.627 152.000 C 224.038 152.000,223.540 152.164,223.200 152.800 C 222.865 153.427,222.362 153.600,220.882 153.600 C 219.426 153.600,218.878 153.783,218.493 154.400 C 218.165 154.925,217.560 155.200,216.733 155.200 C 213.916 155.200,209.947 149.120,212.200 148.255 C 212.530 148.129,212.800 147.568,212.800 147.009 C 212.800 146.450,213.160 145.684,213.600 145.307 C 214.156 144.831,214.400 144.127,214.400 143.000 C 214.400 141.873,214.156 141.169,213.600 140.693 C 213.025 140.200,212.800 139.513,212.800 138.247 C 212.800 137.050,212.608 136.412,212.200 136.255 C 211.704 136.065,211.600 134.990,211.600 130.027 C 211.600 124.438,211.545 123.999,210.800 123.600 C 210.028 123.187,210.000 122.762,210.000 111.400 C 210.000 100.038,210.028 99.613,210.800 99.200 C 211.531 98.809,211.600 98.362,211.600 94.000 C 211.600 89.638,211.531 89.191,210.800 88.800 C 209.716 88.220,209.568 80.651,210.633 80.243 C 212.874 79.383,215.924 79.985,217.507 81.600 L 219.075 83.200 222.938 83.200 C 226.267 83.200,226.910 83.090,227.600 82.400 C 228.222 81.778,228.933 81.600,230.800 81.600 C 232.667 81.600,233.378 81.422,234.000 80.800 C 234.533 80.267,235.333 80.000,236.400 80.000 C 237.467 80.000,238.267 79.733,238.800 79.200 C 239.240 78.760,240.031 78.400,240.557 78.400 C 241.084 78.400,241.618 78.130,241.745 77.800 C 241.878 77.451,242.477 77.200,243.173 77.200 C 243.962 77.200,244.518 76.927,244.800 76.400 C 245.067 75.901,245.638 75.600,246.318 75.600 C 246.974 75.600,247.606 75.282,247.907 74.800 C 248.222 74.296,248.840 74.000,249.576 74.000 C 250.395 74.000,250.822 73.760,251.000 73.200 C 251.140 72.760,251.500 72.400,251.800 72.400 C 252.100 72.400,252.460 72.040,252.600 71.600 C 252.740 71.160,253.027 70.800,253.239 70.800 C 253.451 70.800,254.287 70.080,255.096 69.200 C 256.910 67.227,257.065 67.227,258.800 69.200 C 259.782 70.317,260.524 70.793,261.286 70.796 C 261.960 70.799,262.534 71.104,262.800 71.600 C 263.079 72.121,263.638 72.400,264.400 72.400 C 265.162 72.400,265.721 72.679,266.000 73.200 C 266.365 73.882,266.838 74.000,269.200 74.000 C 271.562 74.000,272.035 74.118,272.400 74.800 C 272.787 75.524,273.238 75.600,277.118 75.600 C 280.974 75.600,281.458 75.681,281.907 76.400 C 282.355 77.118,282.840 77.200,286.616 77.200 C 289.988 77.200,290.871 77.319,291.055 77.800 C 291.250 78.306,292.561 78.400,299.443 78.400 L 307.600 78.400 309.200 80.000 C 310.080 80.880,311.162 81.600,311.604 81.600 C 312.046 81.600,312.716 81.960,313.093 82.400 C 313.578 82.966,314.273 83.200,315.473 83.200 C 316.646 83.200,317.396 83.443,317.904 83.990 C 318.637 84.776,318.643 84.776,319.316 83.990 C 319.688 83.555,320.354 83.200,320.796 83.200 C 321.238 83.200,321.960 82.840,322.400 82.400 C 322.840 81.960,323.560 81.600,324.000 81.600 C 324.440 81.600,325.160 81.240,325.600 80.800 C 326.040 80.360,326.760 80.000,327.200 80.000 C 327.640 80.000,328.360 79.640,328.800 79.200 C 329.240 78.760,330.031 78.400,330.557 78.400 C 331.084 78.400,331.618 78.130,331.745 77.800 C 331.907 77.377,332.566 77.200,333.973 77.200 C 335.562 77.200,336.060 77.036,336.400 76.400 C 336.739 75.766,337.238 75.600,338.800 75.600 C 340.362 75.600,340.861 75.434,341.200 74.800 C 341.539 74.166,342.038 74.000,343.600 74.000 C 345.162 74.000,345.661 73.834,346.000 73.200 C 346.379 72.492,346.838 72.400,349.987 72.400 C 353.195 72.400,353.571 72.321,353.800 71.600 C 354.033 70.867,354.405 70.800,358.252 70.800 C 362.261 70.800,362.500 70.752,363.530 69.736 L 364.610 68.673 362.873 66.936 C 361.918 65.981,360.983 65.200,360.795 65.200 C 360.608 65.200,360.340 64.840,360.200 64.400 C 360.060 63.960,359.700 63.600,359.400 63.600 C 359.100 63.600,358.740 63.240,358.600 62.800 C 358.412 62.209,357.995 62.000,357.000 62.000 C 356.005 62.000,355.588 61.791,355.400 61.200 C 355.260 60.760,354.900 60.400,354.600 60.400 C 354.300 60.400,353.940 60.040,353.800 59.600 C 353.622 59.040,353.195 58.800,352.376 58.800 C 351.640 58.800,351.022 58.504,350.707 58.000 C 350.432 57.560,349.993 57.200,349.731 57.200 C 349.468 57.200,349.140 56.840,349.000 56.400 C 348.833 55.874,348.395 55.600,347.720 55.600 C 347.066 55.600,346.216 55.093,345.374 54.200 C 344.648 53.430,343.682 52.800,343.227 52.800 C 342.772 52.800,342.040 52.440,341.600 52.000 C 341.160 51.560,340.440 51.200,340.000 51.200 C 339.560 51.200,338.840 50.840,338.400 50.400 C 337.960 49.960,337.152 49.600,336.603 49.600 C 336.040 49.600,335.390 49.252,335.107 48.800 C 334.804 48.315,334.174 48.000,333.507 48.000 C 332.840 48.000,332.210 47.685,331.907 47.200 C 331.604 46.715,330.974 46.400,330.307 46.400 C 329.640 46.400,329.010 46.085,328.707 45.600 C 328.404 45.115,327.774 44.800,327.107 44.800 C 326.440 44.800,325.810 44.485,325.507 44.000 C 325.204 43.515,324.574 43.200,323.907 43.200 C 323.240 43.200,322.610 42.885,322.307 42.400 C 322.006 41.918,321.374 41.600,320.718 41.600 C 320.038 41.600,319.467 41.299,319.200 40.800 C 318.921 40.279,318.362 40.000,317.600 40.000 C 316.838 40.000,316.279 39.721,316.000 39.200 C 315.721 38.679,315.162 38.400,314.400 38.400 C 313.638 38.400,313.079 38.121,312.800 37.600 C 312.521 37.079,311.962 36.800,311.200 36.800 C 310.438 36.800,309.879 36.521,309.600 36.000 C 309.261 35.366,308.762 35.200,307.200 35.200 C 305.638 35.200,305.139 35.034,304.800 34.400 C 304.521 33.879,303.962 33.600,303.200 33.600 C 302.438 33.600,301.879 33.321,301.600 32.800 C 301.321 32.279,300.762 32.000,300.000 32.000 C 299.238 32.000,298.679 31.721,298.400 31.200 C 298.061 30.567,297.562 30.400,296.013 30.400 C 294.405 30.400,294.008 30.257,293.800 29.600 C 293.612 29.009,293.195 28.800,292.200 28.800 C 291.205 28.800,290.788 28.591,290.600 28.000 C 290.388 27.331,289.995 27.200,288.200 27.200 C 286.405 27.200,286.012 27.069,285.800 26.400 C 285.591 25.743,285.195 25.600,283.576 25.600 C 282.040 25.600,281.497 25.424,281.107 24.800 C 280.806 24.318,280.174 24.000,279.518 24.000 C 278.838 24.000,278.267 23.699,278.000 23.200 C 277.661 22.566,277.162 22.400,275.600 22.400 C 274.038 22.400,273.539 22.234,273.200 21.600 C 272.860 20.964,272.362 20.800,270.773 20.800 C 269.366 20.800,268.707 20.623,268.545 20.200 C 268.388 19.793,267.750 19.600,266.557 19.600 C 265.333 19.600,264.557 19.357,264.000 18.800 C 263.467 18.267,262.667 18.000,261.600 18.000 C 260.533 18.000,259.733 17.733,259.200 17.200 C 258.507 16.507,257.867 16.400,254.396 16.400 C 250.887 16.400,250.307 16.301,249.707 15.600 C 248.698 14.421,239.782 14.448,238.700 15.633 M256.400 81.757 C 256.400 82.342,255.568 82.800,254.505 82.800 C 254.159 82.800,253.169 83.520,252.307 84.400 C 250.942 85.792,250.507 86.000,248.957 86.000 C 247.742 86.000,247.102 86.191,246.945 86.600 C 246.814 86.941,246.217 87.200,245.561 87.200 C 244.840 87.200,244.219 87.500,243.907 88.000 C 243.522 88.617,242.974 88.800,241.518 88.800 C 240.038 88.800,239.535 88.973,239.200 89.600 C 238.835 90.282,238.362 90.400,236.000 90.400 C 233.638 90.400,233.165 90.518,232.800 91.200 C 232.435 91.882,231.962 92.000,229.600 92.000 C 227.238 92.000,226.765 92.118,226.400 92.800 C 226.067 93.422,225.562 93.600,224.132 93.600 C 220.758 93.600,220.400 94.409,220.400 102.025 C 220.400 107.913,220.338 108.461,219.600 109.093 C 218.328 110.182,218.418 114.800,219.711 114.800 C 220.212 114.800,220.930 114.440,221.307 114.000 C 221.851 113.365,222.487 113.200,224.396 113.200 C 226.267 113.200,226.977 113.023,227.600 112.400 C 228.314 111.686,228.933 111.600,233.357 111.600 C 237.395 111.600,238.357 111.489,238.545 111.000 C 238.707 110.577,239.366 110.400,240.773 110.400 C 242.362 110.400,242.860 110.236,243.200 109.600 C 243.479 109.079,244.038 108.800,244.800 108.800 C 245.562 108.800,246.121 108.521,246.400 108.000 C 246.667 107.501,247.238 107.200,247.918 107.200 C 248.574 107.200,249.206 106.882,249.507 106.400 C 249.822 105.896,250.440 105.600,251.176 105.600 C 251.995 105.600,252.422 105.360,252.600 104.800 C 252.788 104.209,253.205 104.000,254.200 104.000 C 255.195 104.000,255.612 103.791,255.800 103.200 C 255.940 102.760,256.395 102.400,256.813 102.400 C 257.230 102.400,257.765 102.760,258.000 103.200 C 258.339 103.834,258.838 104.000,260.400 104.000 C 261.962 104.000,262.461 104.166,262.800 104.800 C 263.079 105.321,263.638 105.600,264.400 105.600 C 265.162 105.600,265.721 105.879,266.000 106.400 C 266.379 107.108,266.838 107.200,270.000 107.200 C 273.162 107.200,273.621 107.292,274.000 108.000 C 274.384 108.717,274.838 108.800,278.387 108.800 C 281.995 108.800,282.369 108.729,282.600 108.000 C 282.740 107.560,283.100 107.200,283.400 107.200 C 283.700 107.200,284.060 106.840,284.200 106.400 C 284.388 105.809,284.805 105.600,285.800 105.600 C 286.795 105.600,287.212 105.391,287.400 104.800 C 287.540 104.360,287.900 104.000,288.200 104.000 C 288.500 104.000,288.860 103.640,289.000 103.200 C 289.140 102.760,289.500 102.400,289.800 102.400 C 290.100 102.400,290.460 102.040,290.600 101.600 C 290.788 101.009,291.205 100.800,292.200 100.800 C 293.195 100.800,293.612 100.591,293.800 100.000 C 293.940 99.560,294.300 99.200,294.600 99.200 C 294.900 99.200,295.260 98.840,295.400 98.400 C 295.587 97.812,296.005 97.600,296.980 97.600 C 297.970 97.600,298.360 97.397,298.516 96.800 C 298.631 96.360,298.991 96.000,299.316 96.000 C 299.641 96.000,300.001 95.640,300.116 95.200 C 300.258 94.656,300.662 94.400,301.375 94.400 C 302.721 94.400,306.536 90.804,306.330 89.729 C 306.203 89.068,305.626 88.990,300.103 88.890 C 294.515 88.788,293.982 88.715,293.594 87.990 C 293.203 87.258,292.736 87.200,287.229 87.200 C 282.315 87.200,281.246 87.096,281.055 86.600 C 280.877 86.136,280.099 86.000,277.613 86.000 C 274.933 86.000,274.267 85.867,273.600 85.200 C 273.067 84.667,272.267 84.400,271.200 84.400 C 270.133 84.400,269.333 84.133,268.800 83.600 C 268.178 82.978,267.467 82.800,265.600 82.800 C 263.733 82.800,263.022 82.622,262.400 82.000 C 261.399 80.999,256.400 80.797,256.400 81.757 M254.800 114.957 C 254.800 115.552,253.965 116.000,252.856 116.000 C 252.483 116.000,251.870 116.360,251.493 116.800 C 251.116 117.240,250.350 117.600,249.791 117.600 C 249.232 117.600,248.671 117.870,248.545 118.200 C 248.371 118.653,247.641 118.800,245.571 118.800 C 243.238 118.800,242.764 118.919,242.400 119.600 C 242.035 120.282,241.562 120.400,239.200 120.400 C 236.838 120.400,236.365 120.518,236.000 121.200 C 235.595 121.957,235.162 122.000,227.986 122.000 L 220.400 122.000 220.400 124.757 C 220.400 126.839,220.547 127.571,221.000 127.745 C 221.483 127.930,221.600 128.833,221.600 132.373 C 221.600 136.362,221.674 136.812,222.400 137.200 C 222.885 137.460,223.200 138.038,223.200 138.668 C 223.200 140.092,225.163 141.967,225.682 141.039 C 225.934 140.589,226.621 140.400,228.006 140.400 C 229.562 140.400,230.061 140.233,230.400 139.600 C 230.679 139.079,231.238 138.800,232.000 138.800 C 232.762 138.800,233.321 138.521,233.600 138.000 C 233.879 137.479,234.438 137.200,235.200 137.200 C 235.962 137.200,236.521 136.921,236.800 136.400 C 237.079 135.879,237.638 135.600,238.400 135.600 C 239.162 135.600,239.721 135.321,240.000 134.800 C 240.279 134.279,240.838 134.000,241.600 134.000 C 242.362 134.000,242.921 133.721,243.200 133.200 C 243.479 132.679,244.038 132.400,244.800 132.400 C 245.562 132.400,246.121 132.121,246.400 131.600 C 246.666 131.103,247.239 130.799,247.914 130.798 C 248.686 130.797,249.392 130.334,250.356 129.198 C 251.300 128.086,252.031 127.600,252.760 127.600 C 253.374 127.600,254.014 127.269,254.307 126.800 C 254.592 126.343,255.240 126.000,255.816 126.000 C 256.481 126.000,257.326 125.455,258.296 124.400 C 259.274 123.336,260.109 122.800,260.787 122.800 C 261.374 122.800,262.020 122.460,262.307 122.000 C 262.583 121.559,263.240 121.200,263.772 121.200 C 264.947 121.200,268.400 117.893,268.400 116.768 C 268.400 116.124,268.109 116.000,266.600 116.000 C 265.333 116.000,264.563 115.763,264.000 115.200 C 262.978 114.178,254.800 113.962,254.800 114.957 M349.673 151.411 C 347.623 153.495,345.790 155.200,345.600 155.200 C 345.409 155.200,345.140 155.560,345.000 156.000 C 344.860 156.440,344.500 156.800,344.200 156.800 C 343.900 156.800,343.540 157.160,343.400 157.600 C 343.260 158.040,342.888 158.400,342.573 158.400 C 342.152 158.400,342.000 158.931,342.000 160.400 L 342.000 162.400 349.163 162.400 L 356.326 162.400 358.963 159.763 C 360.747 157.979,361.600 156.815,361.600 156.166 C 361.600 155.639,361.960 154.982,362.400 154.707 C 362.840 154.432,363.200 153.807,363.200 153.318 C 363.200 152.829,362.840 152.235,362.400 152.000 C 361.915 151.740,361.600 151.162,361.600 150.532 C 361.600 148.528,359.971 147.599,356.479 147.611 L 353.400 147.621 349.673 151.411 " stroke="none" fill="#fcfcfc" fill-rule="evenodd"></path><path id="path1" d="M225.200 6.400 C 225.200 7.154,224.933 7.200,220.600 7.200 C 216.267 7.200,216.000 7.246,216.000 8.000 C 216.000 8.747,215.733 8.800,212.000 8.800 C 208.267 8.800,208.000 8.853,208.000 9.600 C 208.000 10.333,207.733 10.400,204.800 10.400 C 201.867 10.400,201.600 10.467,201.600 11.200 C 201.600 11.933,201.333 12.000,198.400 12.000 C 195.467 12.000,195.200 12.067,195.200 12.800 C 195.200 13.511,194.933 13.600,192.800 13.600 C 190.667 13.600,190.400 13.689,190.400 14.400 C 190.400 15.133,190.133 15.200,187.200 15.200 C 184.267 15.200,184.000 15.267,184.000 16.000 C 184.000 16.648,183.733 16.800,182.600 16.800 C 181.622 16.800,181.200 16.981,181.200 17.400 C 181.200 17.867,180.667 18.000,178.800 18.000 C 176.667 18.000,176.400 18.089,176.400 18.800 C 176.400 19.467,176.133 19.600,174.800 19.600 C 173.467 19.600,173.200 19.733,173.200 20.400 C 173.200 21.111,172.933 21.200,170.800 21.200 C 168.667 21.200,168.400 21.289,168.400 22.000 C 168.400 22.711,168.133 22.800,166.000 22.800 C 163.867 22.800,163.600 22.889,163.600 23.600 C 163.600 24.267,163.333 24.400,162.000 24.400 C 160.667 24.400,160.400 24.533,160.400 25.200 C 160.400 25.933,160.133 26.000,157.200 26.000 C 154.267 26.000,154.000 26.067,154.000 26.800 C 154.000 27.452,153.733 27.600,152.563 27.600 C 151.462 27.600,151.076 27.787,150.916 28.400 C 150.739 29.075,150.370 29.200,148.553 29.200 C 146.667 29.200,146.400 29.299,146.400 30.000 C 146.400 30.733,146.133 30.800,143.200 30.800 C 140.267 30.800,140.000 30.867,140.000 31.600 C 140.000 32.311,139.733 32.400,137.600 32.400 C 135.467 32.400,135.200 32.489,135.200 33.200 C 135.200 33.933,134.933 34.000,132.000 34.000 C 129.067 34.000,128.800 34.067,128.800 34.800 C 128.800 35.533,128.533 35.600,125.600 35.600 C 122.667 35.600,122.400 35.667,122.400 36.400 C 122.400 37.129,122.133 37.200,119.400 37.200 C 116.667 37.200,116.400 37.271,116.400 38.000 C 116.400 38.747,116.133 38.800,112.400 38.800 C 108.667 38.800,108.400 38.853,108.400 39.600 C 108.400 40.311,108.133 40.400,106.000 40.400 C 103.867 40.400,103.600 40.489,103.600 41.200 C 103.600 41.911,103.333 42.000,101.200 42.000 C 99.067 42.000,98.800 42.089,98.800 42.800 C 98.800 43.333,98.533 43.600,98.000 43.600 C 97.467 43.600,97.200 43.867,97.200 44.400 C 97.200 45.067,96.933 45.200,95.600 45.200 C 94.267 45.200,94.000 45.333,94.000 46.000 C 94.000 46.533,93.733 46.800,93.200 46.800 C 92.667 46.800,92.400 47.067,92.400 47.600 C 92.400 48.133,92.133 48.400,91.600 48.400 C 91.160 48.400,90.800 48.658,90.800 48.973 C 90.800 49.288,90.440 49.660,90.000 49.800 C 89.560 49.940,89.200 50.291,89.200 50.580 C 89.200 50.870,88.840 51.201,88.400 51.316 C 87.960 51.431,87.600 51.791,87.600 52.116 C 87.600 52.441,87.240 52.801,86.800 52.916 C 86.194 53.075,86.000 53.462,86.000 54.516 C 86.000 55.570,85.806 55.957,85.200 56.116 C 84.760 56.231,84.400 56.612,84.400 56.963 C 84.400 57.313,84.130 57.600,83.800 57.600 C 83.367 57.600,83.200 58.044,83.200 59.200 C 83.200 60.533,83.067 60.800,82.400 60.800 C 81.733 60.800,81.600 61.067,81.600 62.400 C 81.600 63.733,81.467 64.000,80.800 64.000 C 80.133 64.000,80.000 64.267,80.000 65.600 C 80.000 66.933,79.867 67.200,79.200 67.200 C 78.489 67.200,78.400 67.467,78.400 69.600 C 78.400 71.733,78.311 72.000,77.600 72.000 C 76.889 72.000,76.800 72.267,76.800 74.400 C 76.800 76.533,76.711 76.800,76.000 76.800 C 75.230 76.800,75.200 77.067,75.200 83.800 C 75.200 90.533,75.170 90.800,74.400 90.800 C 73.653 90.800,73.600 91.067,73.600 94.800 C 73.600 98.533,73.547 98.800,72.800 98.800 C 72.067 98.800,72.000 99.067,72.000 102.000 C 72.000 104.933,71.933 105.200,71.200 105.200 C 70.467 105.200,70.400 105.467,70.400 108.400 C 70.400 111.333,70.333 111.600,69.600 111.600 C 68.871 111.600,68.800 111.867,68.800 114.600 C 68.800 117.333,68.729 117.600,68.000 117.600 C 67.267 117.600,67.200 117.867,67.200 120.800 C 67.200 123.733,67.133 124.000,66.400 124.000 C 65.667 124.000,65.600 124.267,65.600 127.200 C 65.600 130.133,65.533 130.400,64.800 130.400 C 64.067 130.400,64.000 130.667,64.000 133.600 C 64.000 136.533,63.933 136.800,63.200 136.800 C 62.467 136.800,62.400 137.067,62.400 140.000 C 62.400 142.933,62.333 143.200,61.600 143.200 C 60.898 143.200,60.800 143.467,60.800 145.373 C 60.800 147.195,60.671 147.587,60.000 147.800 C 59.295 148.024,59.200 148.405,59.200 151.027 C 59.200 153.733,59.128 154.000,58.400 154.000 C 57.667 154.000,57.600 154.267,57.600 157.200 C 57.600 160.133,57.533 160.400,56.800 160.400 C 56.067 160.400,56.000 160.667,56.000 163.600 C 56.000 166.533,55.933 166.800,55.200 166.800 C 54.467 166.800,54.400 167.067,54.400 170.000 C 54.400 172.933,54.333 173.200,53.600 173.200 C 52.867 173.200,52.800 173.467,52.800 176.400 C 52.800 179.333,52.733 179.600,52.000 179.600 C 51.271 179.600,51.200 179.867,51.200 182.600 C 51.200 185.000,51.080 185.600,50.600 185.600 C 50.079 185.600,50.000 187.289,50.000 198.400 C 50.000 209.511,50.079 211.200,50.600 211.200 C 51.080 211.200,51.200 211.800,51.200 214.200 C 51.200 216.933,51.271 217.200,52.000 217.200 C 52.733 217.200,52.800 217.467,52.800 220.400 C 52.800 223.333,52.867 223.600,53.600 223.600 C 54.267 223.600,54.400 223.867,54.400 225.200 C 54.400 226.533,54.533 226.800,55.200 226.800 C 55.867 226.800,56.000 227.067,56.000 228.400 C 56.000 229.733,56.133 230.000,56.800 230.000 C 57.467 230.000,57.600 230.267,57.600 231.600 C 57.600 232.933,57.733 233.200,58.400 233.200 C 59.067 233.200,59.200 233.467,59.200 234.800 C 59.200 236.133,59.333 236.400,60.000 236.400 C 60.667 236.400,60.800 236.667,60.800 238.000 C 60.800 239.333,60.933 239.600,61.600 239.600 C 62.267 239.600,62.400 239.867,62.400 241.200 C 62.400 242.533,62.533 242.800,63.200 242.800 C 63.848 242.800,64.000 243.067,64.000 244.200 C 64.000 245.333,64.152 245.600,64.800 245.600 C 65.467 245.600,65.600 245.867,65.600 247.200 C 65.600 248.533,65.733 248.800,66.400 248.800 C 67.067 248.800,67.200 249.067,67.200 250.400 C 67.200 251.733,67.333 252.000,68.000 252.000 C 68.733 252.000,68.800 252.267,68.800 255.200 C 68.800 258.133,68.867 258.400,69.600 258.400 C 70.267 258.400,70.400 258.667,70.400 260.000 C 70.400 261.333,70.533 261.600,71.200 261.600 C 71.911 261.600,72.000 261.867,72.000 264.000 C 72.000 266.133,72.089 266.400,72.800 266.400 C 73.467 266.400,73.600 266.667,73.600 268.000 C 73.600 269.333,73.733 269.600,74.400 269.600 C 75.133 269.600,75.200 269.867,75.200 272.800 C 75.200 275.733,75.267 276.000,76.000 276.000 C 76.648 276.000,76.800 276.267,76.800 277.400 C 76.800 278.533,76.952 278.800,77.600 278.800 C 78.333 278.800,78.400 279.067,78.400 282.000 C 78.400 284.933,78.467 285.200,79.200 285.200 C 79.933 285.200,80.000 285.467,80.000 288.400 C 80.000 291.333,80.067 291.600,80.800 291.600 C 81.533 291.600,81.600 291.867,81.600 294.800 C 81.600 297.733,81.667 298.000,82.400 298.000 C 83.133 298.000,83.200 298.267,83.200 301.200 C 83.200 303.778,83.317 304.400,83.800 304.400 C 84.280 304.400,84.400 304.997,84.400 307.373 C 84.400 309.995,84.495 310.376,85.200 310.600 C 85.795 310.789,86.000 311.205,86.000 312.227 C 86.000 313.333,86.155 313.600,86.800 313.600 C 87.533 313.600,87.600 313.867,87.600 316.800 C 87.600 319.733,87.667 320.000,88.400 320.000 C 89.133 320.000,89.200 320.267,89.200 323.200 C 89.200 326.133,89.267 326.400,90.000 326.400 C 90.533 326.400,90.800 326.667,90.800 327.200 C 90.800 327.733,91.067 328.000,91.600 328.000 C 92.133 328.000,92.400 328.267,92.400 328.800 C 92.400 329.333,92.667 329.600,93.200 329.600 C 93.733 329.600,94.000 329.867,94.000 330.400 C 94.000 330.933,94.267 331.200,94.800 331.200 C 95.333 331.200,95.600 331.467,95.600 332.000 C 95.600 332.533,95.867 332.800,96.400 332.800 C 96.933 332.800,97.200 333.067,97.200 333.600 C 97.200 334.133,97.467 334.400,98.000 334.400 C 98.533 334.400,98.800 334.667,98.800 335.200 C 98.800 335.733,99.067 336.000,99.600 336.000 C 100.133 336.000,100.400 336.267,100.400 336.800 C 100.400 337.333,100.667 337.600,101.200 337.600 C 101.733 337.600,102.000 337.867,102.000 338.400 C 102.000 338.933,102.267 339.200,102.800 339.200 C 103.333 339.200,103.600 339.467,103.600 340.000 C 103.600 340.533,103.867 340.800,104.400 340.800 C 104.933 340.800,105.200 341.067,105.200 341.600 C 105.200 342.133,105.467 342.400,106.000 342.400 C 106.444 342.400,106.800 342.667,106.800 343.000 C 106.800 343.433,107.244 343.600,108.400 343.600 C 109.733 343.600,110.000 343.733,110.000 344.400 C 110.000 344.933,110.267 345.200,110.800 345.200 C 111.333 345.200,111.600 345.467,111.600 346.000 C 111.600 346.533,111.867 346.800,112.400 346.800 C 112.933 346.800,113.200 347.067,113.200 347.600 C 113.200 348.133,113.467 348.400,114.000 348.400 C 114.533 348.400,114.800 348.667,114.800 349.200 C 114.800 349.733,115.067 350.000,115.600 350.000 C 116.133 350.000,116.400 350.267,116.400 350.800 C 116.400 351.448,116.667 351.600,117.800 351.600 C 118.933 351.600,119.200 351.752,119.200 352.400 C 119.200 352.933,119.467 353.200,120.000 353.200 C 120.533 353.200,120.800 353.467,120.800 354.000 C 120.800 354.533,121.067 354.800,121.600 354.800 C 122.133 354.800,122.400 355.067,122.400 355.600 C 122.400 356.267,122.667 356.400,124.000 356.400 C 125.333 356.400,125.600 356.533,125.600 357.200 C 125.600 357.867,125.867 358.000,127.200 358.000 C 128.533 358.000,128.800 358.133,128.800 358.800 C 128.800 359.467,129.067 359.600,130.400 359.600 C 131.733 359.600,132.000 359.733,132.000 360.400 C 132.000 361.067,132.267 361.200,133.600 361.200 C 134.933 361.200,135.200 361.333,135.200 362.000 C 135.200 362.533,135.467 362.800,136.000 362.800 C 136.533 362.800,136.800 363.067,136.800 363.600 C 136.800 364.311,137.067 364.400,139.200 364.400 C 141.333 364.400,141.600 364.489,141.600 365.200 C 141.600 365.867,141.867 366.000,143.200 366.000 C 144.533 366.000,144.800 366.133,144.800 366.800 C 144.800 367.543,145.067 367.600,148.553 367.600 C 151.970 367.600,152.325 367.672,152.516 368.400 C 152.844 369.654,173.200 369.654,173.200 368.400 C 173.200 367.733,173.467 367.600,174.800 367.600 C 176.133 367.600,176.400 367.467,176.400 366.800 C 176.400 366.133,176.667 366.000,178.000 366.000 C 179.333 366.000,179.600 365.867,179.600 365.200 C 179.600 364.555,179.867 364.400,180.973 364.400 C 181.995 364.400,182.411 364.195,182.600 363.600 C 182.740 363.160,183.112 362.800,183.427 362.800 C 183.742 362.800,184.000 362.440,184.000 362.000 C 184.000 361.467,184.267 361.200,184.800 361.200 C 185.333 361.200,185.600 360.933,185.600 360.400 C 185.600 359.867,185.867 359.600,186.400 359.600 C 186.933 359.600,187.200 359.333,187.200 358.800 C 187.200 358.267,187.467 358.000,188.000 358.000 C 188.533 358.000,188.800 357.733,188.800 357.200 C 188.800 356.667,189.067 356.400,189.600 356.400 C 190.133 356.400,190.400 356.133,190.400 355.600 C 190.400 354.933,190.667 354.800,192.000 354.800 C 193.333 354.800,193.600 354.667,193.600 354.000 C 193.600 353.467,193.867 353.200,194.400 353.200 C 194.933 353.200,195.200 352.933,195.200 352.400 C 195.200 351.867,195.467 351.600,196.000 351.600 C 196.533 351.600,196.800 351.333,196.800 350.800 C 196.800 350.267,197.067 350.000,197.600 350.000 C 198.133 350.000,198.400 349.733,198.400 349.200 C 198.400 348.667,198.667 348.400,199.200 348.400 C 199.733 348.400,200.000 348.133,200.000 347.600 C 200.000 347.067,200.267 346.800,200.800 346.800 C 201.333 346.800,201.600 346.533,201.600 346.000 C 201.600 345.467,201.867 345.200,202.400 345.200 C 202.933 345.200,203.200 344.933,203.200 344.400 C 203.200 343.867,203.467 343.600,204.000 343.600 C 204.440 343.600,204.800 343.351,204.800 343.047 C 204.800 342.742,205.160 342.399,205.600 342.284 C 206.040 342.169,206.400 341.809,206.400 341.484 C 206.400 341.159,206.760 340.799,207.200 340.684 C 207.640 340.569,208.000 340.188,208.000 339.837 C 208.000 339.467,208.335 339.200,208.800 339.200 C 209.333 339.200,209.600 338.933,209.600 338.400 C 209.600 337.867,209.867 337.600,210.400 337.600 C 210.933 337.600,211.200 337.333,211.200 336.800 C 211.200 336.267,211.467 336.000,212.000 336.000 C 212.517 336.000,212.800 335.733,212.800 335.247 C 212.800 334.830,213.157 334.400,213.600 334.284 C 214.040 334.169,214.400 333.809,214.400 333.484 C 214.400 333.159,214.760 332.799,215.200 332.684 C 215.640 332.569,216.000 332.188,216.000 331.837 C 216.000 331.487,216.270 331.200,216.600 331.200 C 217.033 331.200,217.200 330.756,217.200 329.600 C 217.200 328.267,217.333 328.000,218.000 328.000 C 218.533 328.000,218.800 327.733,218.800 327.200 C 218.800 326.667,219.067 326.400,219.600 326.400 C 220.133 326.400,220.400 326.133,220.400 325.600 C 220.400 325.067,220.667 324.800,221.200 324.800 C 221.733 324.800,222.000 324.533,222.000 324.000 C 222.000 323.467,222.267 323.200,222.800 323.200 C 223.333 323.200,223.600 322.933,223.600 322.400 C 223.600 321.867,223.867 321.600,224.400 321.600 C 224.933 321.600,225.200 321.333,225.200 320.800 C 225.200 320.267,225.467 320.000,226.000 320.000 C 226.667 320.000,226.800 319.733,226.800 318.400 C 226.800 317.067,226.933 316.800,227.600 316.800 C 228.133 316.800,228.400 316.533,228.400 316.000 C 228.400 315.467,228.667 315.200,229.200 315.200 C 229.733 315.200,230.000 314.933,230.000 314.400 C 230.000 313.867,230.267 313.600,230.800 313.600 C 231.445 313.600,231.600 313.333,231.600 312.227 C 231.600 311.205,231.805 310.789,232.400 310.600 C 232.840 310.460,233.200 310.109,233.200 309.820 C 233.200 309.530,233.560 309.199,234.000 309.084 C 234.440 308.969,234.800 308.588,234.800 308.237 C 234.800 307.867,235.135 307.600,235.600 307.600 C 236.267 307.600,236.400 307.333,236.400 306.000 C 236.400 304.667,236.533 304.400,237.200 304.400 C 237.733 304.400,238.000 304.133,238.000 303.600 C 238.000 303.067,238.267 302.800,238.800 302.800 C 239.333 302.800,239.600 302.533,239.600 302.000 C 239.600 301.467,239.867 301.200,240.400 301.200 C 241.067 301.200,241.200 300.933,241.200 299.600 C 241.200 298.267,241.333 298.000,242.000 298.000 C 242.667 298.000,242.800 297.733,242.800 296.400 C 242.800 295.067,242.933 294.800,243.600 294.800 C 244.267 294.800,244.400 294.533,244.400 293.200 C 244.400 291.867,244.533 291.600,245.200 291.600 C 245.733 291.600,246.000 291.333,246.000 290.800 C 246.000 290.360,246.251 290.000,246.557 290.000 C 247.195 290.000,247.600 289.151,247.600 287.814 C 247.600 287.230,247.892 286.817,248.400 286.684 C 249.013 286.524,249.200 286.138,249.200 285.037 C 249.200 284.026,249.378 283.600,249.800 283.600 C 250.233 283.600,250.400 283.156,250.400 282.000 C 250.400 280.667,250.533 280.400,251.200 280.400 C 251.842 280.400,252.000 280.133,252.000 279.047 C 252.000 278.030,252.199 277.641,252.800 277.484 C 253.480 277.306,253.600 276.938,253.600 275.037 C 253.600 273.067,253.695 272.800,254.400 272.800 C 254.933 272.800,255.200 272.533,255.200 272.000 C 255.200 271.467,255.467 271.200,256.000 271.200 C 256.667 271.200,256.800 270.933,256.800 269.600 C 256.800 268.267,256.933 268.000,257.600 268.000 C 258.267 268.000,258.400 267.733,258.400 266.400 C 258.400 265.067,258.533 264.800,259.200 264.800 C 259.867 264.800,260.000 264.533,260.000 263.200 C 260.000 261.867,260.133 261.600,260.800 261.600 C 261.467 261.600,261.600 261.333,261.600 260.000 C 261.600 258.667,261.733 258.400,262.400 258.400 C 263.111 258.400,263.200 258.133,263.200 256.000 C 263.200 253.867,263.289 253.600,264.000 253.600 C 264.667 253.600,264.800 253.333,264.800 252.000 C 264.800 250.667,264.933 250.400,265.600 250.400 C 266.133 250.400,266.400 250.133,266.400 249.600 C 266.400 249.067,266.667 248.800,267.200 248.800 C 267.901 248.800,268.000 248.533,268.000 246.647 C 268.000 244.830,268.125 244.461,268.800 244.284 C 269.413 244.124,269.600 243.738,269.600 242.637 C 269.600 241.467,269.748 241.200,270.400 241.200 C 271.067 241.200,271.200 240.933,271.200 239.600 C 271.200 238.267,271.333 238.000,272.000 238.000 C 272.667 238.000,272.800 237.733,272.800 236.400 C 272.800 235.067,272.933 234.800,273.600 234.800 C 274.267 234.800,274.400 234.533,274.400 233.200 C 274.400 231.867,274.533 231.600,275.200 231.600 C 275.867 231.600,276.000 231.333,276.000 230.000 C 276.000 228.667,276.133 228.400,276.800 228.400 C 277.467 228.400,277.600 228.133,277.600 226.800 C 277.600 225.467,277.733 225.200,278.400 225.200 C 278.933 225.200,279.200 224.933,279.200 224.400 C 279.200 223.867,279.467 223.600,280.000 223.600 C 280.663 223.600,280.800 223.333,280.800 222.047 C 280.800 220.830,280.973 220.448,281.600 220.284 C 282.213 220.124,282.400 219.738,282.400 218.637 C 282.400 217.626,282.578 217.200,283.000 217.200 C 283.433 217.200,283.600 216.756,283.600 215.600 C 283.600 214.267,283.733 214.000,284.400 214.000 C 285.048 214.000,285.200 213.733,285.200 212.600 C 285.200 211.467,285.352 211.200,286.000 211.200 C 286.533 211.200,286.800 210.933,286.800 210.400 C 286.800 209.867,287.067 209.600,287.600 209.600 C 288.133 209.600,288.400 209.333,288.400 208.800 C 288.400 208.267,288.667 208.000,289.200 208.000 C 289.733 208.000,290.000 207.733,290.000 207.200 C 290.000 206.667,290.267 206.400,290.800 206.400 C 291.467 206.400,291.600 206.133,291.600 204.800 C 291.600 203.467,291.733 203.200,292.400 203.200 C 292.933 203.200,293.200 202.933,293.200 202.400 C 293.200 201.867,293.467 201.600,294.000 201.600 C 294.533 201.600,294.800 201.333,294.800 200.800 C 294.800 200.267,295.067 200.000,295.600 200.000 C 296.133 200.000,296.400 199.733,296.400 199.200 C 296.400 198.667,296.667 198.400,297.200 198.400 C 297.733 198.400,298.000 198.133,298.000 197.600 C 298.000 197.067,298.267 196.800,298.800 196.800 C 299.333 196.800,299.600 196.533,299.600 196.000 C 299.600 195.467,299.867 195.200,300.400 195.200 C 300.933 195.200,301.200 194.933,301.200 194.400 C 301.200 193.867,301.467 193.600,302.000 193.600 C 302.533 193.600,302.800 193.333,302.800 192.800 C 302.800 192.267,303.067 192.000,303.600 192.000 C 304.133 192.000,304.400 191.733,304.400 191.200 C 304.400 190.667,304.667 190.400,305.200 190.400 C 305.733 190.400,306.000 190.133,306.000 189.600 C 306.000 188.933,306.267 188.800,307.600 188.800 C 308.933 188.800,309.200 188.667,309.200 188.000 C 309.200 187.467,309.467 187.200,310.000 187.200 C 310.533 187.200,310.800 186.933,310.800 186.400 C 310.800 185.867,311.067 185.600,311.600 185.600 C 312.133 185.600,312.400 185.333,312.400 184.800 C 312.400 184.148,312.667 184.000,313.837 184.000 C 314.938 184.000,315.324 183.813,315.484 183.200 C 315.599 182.760,315.942 182.400,316.247 182.400 C 316.551 182.400,316.800 182.040,316.800 181.600 C 316.800 181.067,317.067 180.800,317.600 180.800 C 318.040 180.800,318.400 180.551,318.400 180.247 C 318.400 179.942,318.760 179.599,319.200 179.484 C 319.640 179.369,320.000 178.988,320.000 178.637 C 320.000 178.160,320.403 178.000,321.600 178.000 C 322.933 178.000,323.200 177.867,323.200 177.200 C 323.200 176.533,323.467 176.400,324.800 176.400 L 326.400 176.400 326.400 174.800 C 326.400 173.467,326.533 173.200,327.200 173.200 C 327.733 173.200,328.000 172.933,328.000 172.400 C 328.000 171.867,328.267 171.600,328.800 171.600 C 329.333 171.600,329.600 171.333,329.600 170.800 C 329.600 170.067,329.867 170.000,332.800 170.000 C 335.733 170.000,336.000 170.067,336.000 170.800 C 336.000 171.511,336.267 171.600,338.400 171.600 C 340.533 171.600,340.800 171.689,340.800 172.400 C 340.800 173.175,341.067 173.200,349.400 173.200 C 357.733 173.200,358.000 173.175,358.000 172.400 C 358.000 171.689,358.267 171.600,360.400 171.600 C 362.533 171.600,362.800 171.511,362.800 170.800 C 362.800 170.267,363.067 170.000,363.600 170.000 C 364.133 170.000,364.400 169.733,364.400 169.200 C 364.400 168.667,364.667 168.400,365.200 168.400 C 365.733 168.400,366.000 168.133,366.000 167.600 C 366.000 167.067,366.267 166.800,366.800 166.800 C 367.333 166.800,367.600 166.533,367.600 166.000 C 367.600 165.467,367.867 165.200,368.400 165.200 C 368.933 165.200,369.200 164.933,369.200 164.400 C 369.200 163.867,369.467 163.600,370.000 163.600 C 370.667 163.600,370.800 163.333,370.800 162.000 C 370.800 160.667,370.933 160.400,371.600 160.400 C 372.370 160.400,372.400 160.133,372.400 153.400 C 372.400 146.667,372.370 146.400,371.600 146.400 C 371.067 146.400,370.800 146.133,370.800 145.600 C 370.800 145.067,370.533 144.800,370.000 144.800 C 369.467 144.800,369.200 144.533,369.200 144.000 C 369.200 143.467,368.933 143.200,368.400 143.200 C 367.867 143.200,367.600 142.933,367.600 142.400 C 367.600 141.867,367.333 141.600,366.800 141.600 C 366.267 141.600,366.000 141.333,366.000 140.800 C 366.000 140.267,365.733 140.000,365.200 140.000 C 364.533 140.000,364.400 139.733,364.400 138.400 C 364.400 137.067,364.533 136.800,365.200 136.800 C 365.733 136.800,366.000 136.533,366.000 136.000 C 366.000 135.467,366.267 135.200,366.800 135.200 C 367.333 135.200,367.600 134.933,367.600 134.400 C 367.600 133.867,367.867 133.600,368.400 133.600 C 368.933 133.600,369.200 133.333,369.200 132.800 C 369.200 132.267,369.467 132.000,370.000 132.000 C 370.533 132.000,370.800 131.733,370.800 131.200 C 370.800 130.667,371.067 130.400,371.600 130.400 C 372.133 130.400,372.400 130.133,372.400 129.600 C 372.400 129.067,372.667 128.800,373.200 128.800 C 373.733 128.800,374.000 128.533,374.000 128.000 C 374.000 127.467,374.267 127.200,374.800 127.200 C 375.333 127.200,375.600 126.933,375.600 126.400 C 375.600 125.867,375.867 125.600,376.400 125.600 C 376.933 125.600,377.200 125.333,377.200 124.800 C 377.200 124.267,377.467 124.000,378.000 124.000 C 378.533 124.000,378.800 123.733,378.800 123.200 C 378.800 122.667,379.067 122.400,379.600 122.400 C 380.133 122.400,380.400 122.133,380.400 121.600 C 380.400 121.067,380.667 120.800,381.200 120.800 C 381.867 120.800,382.000 120.533,382.000 119.200 C 382.000 118.044,382.167 117.600,382.600 117.600 C 382.933 117.600,383.200 117.244,383.200 116.800 C 383.200 116.267,383.467 116.000,384.000 116.000 C 384.533 116.000,384.800 115.733,384.800 115.200 C 384.800 114.667,385.067 114.400,385.600 114.400 C 386.248 114.400,386.400 114.133,386.400 113.000 C 386.400 111.867,386.552 111.600,387.200 111.600 C 387.733 111.600,388.000 111.333,388.000 110.800 C 388.000 110.267,388.267 110.000,388.800 110.000 C 389.467 110.000,389.600 109.733,389.600 108.400 C 389.600 107.067,389.733 106.800,390.400 106.800 C 391.067 106.800,391.200 106.533,391.200 105.200 C 391.200 103.867,391.333 103.600,392.000 103.600 C 392.770 103.600,392.800 103.333,392.800 96.400 C 392.800 89.467,392.770 89.200,392.000 89.200 C 391.289 89.200,391.200 88.933,391.200 86.800 C 391.200 84.716,391.101 84.400,390.447 84.400 C 390.030 84.400,389.600 84.043,389.484 83.600 C 389.369 83.160,388.988 82.800,388.637 82.800 C 388.176 82.800,388.000 82.414,388.000 81.400 C 388.000 80.267,387.848 80.000,387.200 80.000 C 386.667 80.000,386.400 79.733,386.400 79.200 C 386.400 78.667,386.133 78.400,385.600 78.400 C 385.067 78.400,384.800 78.133,384.800 77.600 C 384.800 77.067,384.533 76.800,384.000 76.800 C 383.467 76.800,383.200 76.533,383.200 76.000 C 383.200 75.556,382.933 75.200,382.600 75.200 C 382.167 75.200,382.000 74.756,382.000 73.600 C 382.000 72.267,381.867 72.000,381.200 72.000 C 380.667 72.000,380.400 71.733,380.400 71.200 C 380.400 70.667,380.133 70.400,379.600 70.400 C 379.067 70.400,378.800 70.133,378.800 69.600 C 378.800 69.067,378.533 68.800,378.000 68.800 C 377.333 68.800,377.200 68.533,377.200 67.200 C 377.200 65.867,377.067 65.600,376.400 65.600 C 375.867 65.600,375.600 65.333,375.600 64.800 C 375.600 64.267,375.333 64.000,374.800 64.000 C 374.267 64.000,374.000 63.733,374.000 63.200 C 374.000 62.667,373.733 62.400,373.200 62.400 C 372.667 62.400,372.400 62.133,372.400 61.600 C 372.400 60.933,372.133 60.800,370.800 60.800 C 369.467 60.800,369.200 60.667,369.200 60.000 C 369.200 59.467,368.933 59.200,368.400 59.200 C 367.867 59.200,367.600 58.933,367.600 58.400 C 367.600 57.867,367.333 57.600,366.800 57.600 C 366.267 57.600,366.000 57.333,366.000 56.800 C 366.000 56.267,365.733 56.000,365.200 56.000 C 364.667 56.000,364.400 55.733,364.400 55.200 C 364.400 54.533,364.133 54.400,362.800 54.400 C 361.467 54.400,361.200 54.267,361.200 53.600 C 361.200 53.067,360.933 52.800,360.400 52.800 C 359.867 52.800,359.600 52.533,359.600 52.000 C 359.600 51.467,359.333 51.200,358.800 51.200 C 358.360 51.200,358.000 50.949,358.000 50.643 C 358.000 49.998,357.148 49.600,355.767 49.600 C 355.174 49.600,354.800 49.368,354.800 49.000 C 354.800 48.667,354.444 48.400,354.000 48.400 C 353.467 48.400,353.200 48.133,353.200 47.600 C 353.200 46.933,352.933 46.800,351.600 46.800 C 350.267 46.800,350.000 46.667,350.000 46.000 C 350.000 45.556,349.733 45.200,349.400 45.200 C 349.067 45.200,348.800 44.844,348.800 44.400 C 348.800 43.733,348.533 43.600,347.200 43.600 C 345.867 43.600,345.600 43.467,345.600 42.800 C 345.600 42.133,345.333 42.000,344.000 42.000 C 342.667 42.000,342.400 41.867,342.400 41.200 C 342.400 40.533,342.133 40.400,340.800 40.400 C 339.467 40.400,339.200 40.267,339.200 39.600 C 339.200 38.933,338.933 38.800,337.600 38.800 C 336.267 38.800,336.000 38.667,336.000 38.000 C 336.000 37.333,335.733 37.200,334.400 37.200 C 333.067 37.200,332.800 37.067,332.800 36.400 C 332.800 35.867,332.533 35.600,332.000 35.600 C 331.467 35.600,331.200 35.333,331.200 34.800 C 331.200 34.089,330.933 34.000,328.800 34.000 C 326.667 34.000,326.400 33.911,326.400 33.200 C 326.400 32.533,326.133 32.400,324.800 32.400 C 323.467 32.400,323.200 32.267,323.200 31.600 C 323.200 30.933,322.933 30.800,321.600 30.800 C 320.267 30.800,320.000 30.667,320.000 30.000 C 320.000 29.333,319.733 29.200,318.400 29.200 C 317.067 29.200,316.800 29.067,316.800 28.400 C 316.800 27.758,316.533 27.600,315.447 27.600 C 314.430 27.600,314.041 27.401,313.884 26.800 C 313.706 26.120,313.338 26.000,311.437 26.000 C 309.467 26.000,309.200 25.905,309.200 25.200 C 309.200 24.533,308.933 24.400,307.600 24.400 C 306.267 24.400,306.000 24.267,306.000 23.600 C 306.000 22.933,305.733 22.800,304.400 22.800 C 303.067 22.800,302.800 22.667,302.800 22.000 C 302.800 21.289,302.533 21.200,300.400 21.200 C 298.267 21.200,298.000 21.111,298.000 20.400 C 298.000 19.733,297.733 19.600,296.400 19.600 C 295.067 19.600,294.800 19.467,294.800 18.800 C 294.800 18.089,294.533 18.000,292.400 18.000 C 290.533 18.000,290.000 17.867,290.000 17.400 C 290.000 16.933,289.467 16.800,287.600 16.800 C 285.467 16.800,285.200 16.711,285.200 16.000 C 285.200 15.297,284.933 15.200,283.000 15.200 C 281.067 15.200,280.800 15.103,280.800 14.400 C 280.800 13.733,280.533 13.600,279.200 13.600 C 277.867 13.600,277.600 13.467,277.600 12.800 C 277.600 12.089,277.333 12.000,275.200 12.000 C 273.067 12.000,272.800 11.911,272.800 11.200 C 272.800 10.489,272.533 10.400,270.400 10.400 C 268.267 10.400,268.000 10.311,268.000 9.600 C 268.000 8.889,267.733 8.800,265.600 8.800 C 263.467 8.800,263.200 8.711,263.200 8.000 C 263.200 7.267,262.933 7.200,260.000 7.200 C 257.067 7.200,256.800 7.133,256.800 6.400 C 256.800 5.614,256.533 5.600,241.000 5.600 C 225.467 5.600,225.200 5.614,225.200 6.400 M249.800 14.800 C 250.435 15.502,251.032 15.600,254.659 15.600 C 258.360 15.600,258.846 15.684,259.293 16.400 C 259.678 17.017,260.226 17.200,261.682 17.200 C 263.162 17.200,263.665 17.373,264.000 18.000 C 264.339 18.634,264.838 18.800,266.400 18.800 C 267.962 18.800,268.461 18.966,268.800 19.600 C 269.139 20.234,269.638 20.400,271.200 20.400 C 272.762 20.400,273.261 20.566,273.600 21.200 C 273.939 21.834,274.438 22.000,276.000 22.000 C 277.562 22.000,278.061 22.166,278.400 22.800 C 278.679 23.321,279.238 23.600,280.000 23.600 C 280.762 23.600,281.321 23.879,281.600 24.400 C 281.935 25.027,282.438 25.200,283.918 25.200 C 285.374 25.200,285.922 25.383,286.307 26.000 C 286.682 26.600,287.240 26.800,288.541 26.800 C 289.768 26.800,290.488 27.034,291.000 27.600 C 291.398 28.040,292.118 28.400,292.600 28.400 C 293.082 28.400,293.802 28.760,294.200 29.200 C 294.705 29.758,295.432 30.000,296.600 30.000 C 297.768 30.000,298.495 30.242,299.000 30.800 C 299.398 31.240,300.118 31.600,300.600 31.600 C 301.082 31.600,301.802 31.960,302.200 32.400 C 302.598 32.840,303.318 33.200,303.800 33.200 C 304.282 33.200,305.002 33.560,305.400 34.000 C 305.901 34.554,306.632 34.800,307.773 34.800 C 308.927 34.800,309.628 35.040,310.107 35.600 C 310.484 36.040,311.250 36.400,311.809 36.400 C 312.368 36.400,312.929 36.670,313.055 37.000 C 313.186 37.341,313.783 37.600,314.439 37.600 C 315.160 37.600,315.781 37.900,316.093 38.400 C 316.396 38.885,317.026 39.200,317.693 39.200 C 318.360 39.200,318.990 39.515,319.293 40.000 C 319.596 40.485,320.226 40.800,320.893 40.800 C 321.560 40.800,322.190 41.115,322.493 41.600 C 322.796 42.085,323.426 42.400,324.093 42.400 C 324.760 42.400,325.390 42.715,325.693 43.200 C 325.994 43.682,326.626 44.000,327.282 44.000 C 327.962 44.000,328.533 44.301,328.800 44.800 C 329.079 45.321,329.638 45.600,330.400 45.600 C 331.162 45.600,331.721 45.879,332.000 46.400 C 332.279 46.921,332.838 47.200,333.600 47.200 C 334.362 47.200,334.921 47.479,335.200 48.000 C 335.479 48.521,336.038 48.800,336.800 48.800 C 337.562 48.800,338.121 49.079,338.400 49.600 C 338.679 50.121,339.238 50.400,340.000 50.400 C 340.762 50.400,341.321 50.679,341.600 51.200 C 341.866 51.696,342.440 52.001,343.114 52.004 C 343.876 52.007,344.618 52.483,345.600 53.600 C 346.458 54.576,347.353 55.194,347.912 55.196 C 348.462 55.198,349.410 55.837,350.296 56.800 C 351.202 57.785,352.124 58.400,352.696 58.400 C 353.268 58.400,354.190 59.015,355.096 60.000 C 355.905 60.880,356.934 61.602,357.384 61.603 C 358.153 61.607,365.200 68.043,365.200 68.742 C 365.200 70.309,362.911 71.200,358.882 71.200 C 355.240 71.200,354.754 71.285,354.307 72.000 C 353.870 72.701,353.374 72.800,350.318 72.800 C 347.238 72.800,346.778 72.894,346.400 73.600 C 346.061 74.234,345.562 74.400,344.000 74.400 C 342.438 74.400,341.939 74.566,341.600 75.200 C 341.261 75.834,340.762 76.000,339.200 76.000 C 337.638 76.000,337.139 76.166,336.800 76.800 C 336.461 77.434,335.962 77.600,334.400 77.600 C 332.838 77.600,332.339 77.766,332.000 78.400 C 331.733 78.899,331.162 79.200,330.482 79.200 C 329.826 79.200,329.194 79.518,328.893 80.000 C 328.590 80.485,327.960 80.800,327.293 80.800 C 326.626 80.800,325.996 81.115,325.693 81.600 C 325.390 82.085,324.760 82.400,324.093 82.400 C 323.426 82.400,322.796 82.715,322.493 83.200 C 322.190 83.685,321.560 84.000,320.893 84.000 C 320.207 84.000,319.594 84.317,319.267 84.842 L 318.741 85.684 317.845 84.842 C 317.240 84.274,316.425 84.000,315.336 84.000 C 314.232 84.000,313.496 83.748,313.000 83.200 C 312.602 82.760,311.892 82.400,311.422 82.400 C 310.937 82.400,309.931 81.708,309.096 80.800 L 307.625 79.200 299.427 79.200 C 291.638 79.200,291.207 79.160,290.800 78.400 C 290.414 77.679,289.962 77.600,286.248 77.600 C 282.632 77.600,282.035 77.501,281.400 76.800 C 280.766 76.100,280.168 76.000,276.600 76.000 C 273.032 76.000,272.434 75.900,271.800 75.200 C 271.222 74.561,270.568 74.400,268.552 74.400 C 266.438 74.400,265.959 74.270,265.600 73.600 C 265.321 73.079,264.762 72.800,264.000 72.800 C 263.238 72.800,262.679 72.521,262.400 72.000 C 262.134 71.504,261.560 71.199,260.886 71.196 C 260.127 71.193,259.380 70.717,258.407 69.616 L 257.013 68.040 253.884 71.220 C 251.693 73.447,250.466 74.400,249.792 74.400 C 249.238 74.400,248.646 74.740,248.400 75.200 C 248.121 75.721,247.562 76.000,246.800 76.000 C 246.038 76.000,245.479 76.279,245.200 76.800 C 244.921 77.321,244.362 77.600,243.600 77.600 C 242.838 77.600,242.279 77.879,242.000 78.400 C 241.721 78.921,241.162 79.200,240.400 79.200 C 239.638 79.200,239.079 79.479,238.800 80.000 C 238.461 80.634,237.962 80.800,236.400 80.800 C 234.838 80.800,234.339 80.966,234.000 81.600 C 233.637 82.278,233.162 82.400,230.882 82.400 C 228.626 82.400,228.112 82.529,227.693 83.200 C 227.246 83.916,226.760 84.000,223.078 84.000 L 218.962 84.000 217.384 82.384 C 215.825 80.787,215.776 80.769,213.203 80.884 L 210.600 81.000 210.485 84.478 C 210.380 87.632,210.445 87.996,211.185 88.392 C 212.425 89.056,212.438 98.937,211.200 99.600 C 210.429 100.013,210.400 100.438,210.400 111.400 C 210.400 122.362,210.429 122.787,211.200 123.200 C 211.944 123.598,212.000 124.038,212.000 129.518 C 212.000 134.974,212.059 135.444,212.800 135.907 C 213.400 136.282,213.600 136.840,213.600 138.141 C 213.600 139.368,213.834 140.088,214.400 140.600 C 214.958 141.105,215.200 141.832,215.200 143.000 C 215.200 144.168,214.958 144.895,214.400 145.400 C 213.960 145.798,213.600 146.518,213.600 147.000 C 213.600 147.482,213.240 148.202,212.800 148.600 C 211.564 149.718,211.830 150.668,213.981 152.819 C 216.096 154.934,217.309 155.291,218.000 154.000 C 218.339 153.366,218.838 153.200,220.400 153.200 C 221.962 153.200,222.461 153.034,222.800 152.400 C 223.139 151.766,223.638 151.600,225.200 151.600 C 226.762 151.600,227.261 151.434,227.600 150.800 C 227.939 150.166,228.438 150.000,230.000 150.000 C 231.562 150.000,232.061 149.834,232.400 149.200 C 232.679 148.679,233.238 148.400,234.000 148.400 C 234.762 148.400,235.321 148.121,235.600 147.600 C 235.867 147.101,236.438 146.800,237.118 146.800 C 237.774 146.800,238.406 146.482,238.707 146.000 C 239.010 145.515,239.640 145.200,240.307 145.200 C 240.974 145.200,241.604 144.885,241.907 144.400 C 242.210 143.915,242.840 143.600,243.507 143.600 C 244.174 143.600,244.804 143.285,245.107 142.800 C 245.410 142.315,246.040 142.000,246.707 142.000 C 247.374 142.000,248.004 141.685,248.307 141.200 C 248.610 140.715,249.240 140.400,249.907 140.400 C 250.574 140.400,251.204 140.085,251.507 139.600 C 251.782 139.160,252.427 138.800,252.941 138.800 C 253.455 138.800,254.202 138.440,254.600 138.000 C 254.998 137.560,255.711 137.200,256.184 137.200 C 256.656 137.200,257.654 136.570,258.400 135.800 C 259.146 135.030,260.144 134.400,260.616 134.400 C 261.089 134.400,261.802 134.040,262.200 133.600 C 262.598 133.160,263.310 132.800,263.781 132.800 C 264.253 132.800,265.338 132.082,266.200 131.200 C 267.059 130.320,268.139 129.600,268.600 129.600 C 269.061 129.600,270.141 128.880,271.000 128.000 C 271.859 127.120,272.939 126.400,273.400 126.400 C 273.861 126.400,274.941 125.680,275.800 124.800 C 276.659 123.920,277.739 123.200,278.200 123.200 C 278.661 123.200,279.741 122.480,280.600 121.600 C 281.459 120.720,282.535 120.000,282.991 120.000 C 283.494 120.000,285.066 118.745,287.000 116.800 C 288.775 115.015,290.521 113.600,290.950 113.600 C 291.372 113.600,292.788 112.520,294.096 111.200 C 295.473 109.810,296.821 108.800,297.299 108.800 C 297.753 108.800,298.831 108.080,299.693 107.200 C 300.556 106.320,301.636 105.600,302.093 105.600 C 302.551 105.600,303.631 104.880,304.493 104.000 C 305.373 103.102,306.444 102.400,306.934 102.400 C 307.419 102.400,308.376 101.779,309.090 101.000 C 309.834 100.190,310.760 99.598,311.288 99.596 C 311.847 99.594,312.742 98.976,313.600 98.000 C 314.582 96.883,315.324 96.407,316.086 96.404 C 316.760 96.401,317.334 96.096,317.600 95.600 C 317.879 95.079,318.438 94.800,319.200 94.800 C 319.962 94.800,320.521 94.521,320.800 94.000 C 321.066 93.504,321.640 93.199,322.314 93.196 C 323.076 93.193,323.818 92.717,324.800 91.600 C 326.059 90.169,326.391 90.007,328.086 90.004 C 329.560 90.001,330.065 89.825,330.400 89.200 C 330.679 88.679,331.238 88.400,332.000 88.400 C 332.762 88.400,333.321 88.121,333.600 87.600 C 333.867 87.101,334.438 86.800,335.118 86.800 C 335.774 86.800,336.406 86.482,336.707 86.000 C 337.093 85.382,337.640 85.200,339.107 85.200 C 340.574 85.200,341.121 85.018,341.507 84.400 C 341.782 83.960,342.427 83.600,342.941 83.600 C 343.455 83.600,344.202 83.240,344.600 82.800 C 345.212 82.124,345.832 82.000,348.600 82.000 C 351.368 82.000,351.988 81.876,352.600 81.200 C 353.721 79.962,372.033 79.962,373.093 81.200 C 373.470 81.640,374.173 82.000,374.656 82.000 C 375.230 82.000,376.796 83.261,379.168 85.632 L 382.800 89.265 382.800 95.018 C 382.800 100.362,382.743 100.802,382.000 101.200 C 381.504 101.466,381.199 102.040,381.196 102.714 C 381.193 103.476,380.717 104.218,379.600 105.200 C 378.594 106.084,378.006 106.948,378.004 107.544 C 378.001 108.171,377.194 109.264,375.600 110.800 C 374.252 112.099,373.200 113.460,373.200 113.905 C 373.200 115.035,334.651 153.600,333.521 153.600 C 332.978 153.600,330.793 155.498,327.306 159.000 C 324.063 162.256,321.617 164.400,321.146 164.400 C 320.668 164.400,317.890 166.888,314.000 170.800 C 309.707 175.117,307.355 177.200,306.774 177.200 C 306.244 177.200,305.021 178.125,303.600 179.600 C 302.182 181.071,300.955 182.000,300.428 182.000 C 299.234 182.000,286.400 194.815,286.400 196.008 C 286.400 196.555,285.237 198.006,283.200 200.000 C 281.017 202.136,279.999 203.429,279.996 204.066 C 279.994 204.651,279.397 205.524,278.400 206.400 C 277.351 207.322,276.805 208.141,276.800 208.800 C 276.795 209.459,276.249 210.278,275.200 211.200 C 274.143 212.129,273.607 212.938,273.604 213.604 C 273.602 214.171,273.252 214.825,272.800 215.107 C 272.343 215.392,272.000 216.040,272.000 216.616 C 272.000 217.281,271.455 218.126,270.400 219.096 C 269.336 220.074,268.800 220.909,268.800 221.587 C 268.800 222.174,268.460 222.820,268.000 223.107 C 267.560 223.382,267.200 224.027,267.200 224.541 C 267.200 225.055,266.840 225.802,266.400 226.200 C 265.960 226.598,265.600 227.318,265.600 227.800 C 265.600 228.282,265.240 229.002,264.800 229.400 C 264.360 229.798,264.000 230.518,264.000 231.000 C 264.000 231.482,263.640 232.202,263.200 232.600 C 262.760 232.998,262.400 233.724,262.400 234.213 C 262.400 234.702,262.130 235.326,261.800 235.600 C 261.470 235.874,261.200 236.498,261.200 236.987 C 261.200 237.476,260.840 238.202,260.400 238.600 C 259.834 239.112,259.600 239.832,259.600 241.059 C 259.600 242.360,259.400 242.918,258.800 243.293 C 258.315 243.596,258.000 244.226,258.000 244.893 C 258.000 245.560,257.685 246.190,257.200 246.493 C 256.715 246.796,256.400 247.426,256.400 248.093 C 256.400 248.760,256.085 249.390,255.600 249.693 C 254.982 250.079,254.800 250.626,254.800 252.093 C 254.800 253.560,254.618 254.107,254.000 254.493 C 253.518 254.794,253.200 255.426,253.200 256.082 C 253.200 256.762,252.899 257.333,252.400 257.600 C 251.766 257.939,251.600 258.438,251.600 260.000 C 251.600 261.562,251.434 262.061,250.800 262.400 C 250.279 262.679,250.000 263.238,250.000 264.000 C 250.000 264.762,249.721 265.321,249.200 265.600 C 248.704 265.866,248.399 266.440,248.396 267.114 C 248.393 267.876,247.917 268.618,246.800 269.600 C 245.683 270.582,245.207 271.324,245.204 272.086 C 245.201 272.760,244.896 273.334,244.400 273.600 C 243.879 273.879,243.600 274.438,243.600 275.200 C 243.600 275.962,243.321 276.521,242.800 276.800 C 242.328 277.053,242.000 277.638,242.000 278.227 C 242.000 278.879,241.446 279.734,240.400 280.696 C 239.336 281.674,238.800 282.509,238.800 283.187 C 238.800 283.774,238.460 284.420,238.000 284.707 C 237.560 284.982,237.200 285.627,237.200 286.141 C 237.200 286.655,236.840 287.402,236.400 287.800 C 235.960 288.198,235.600 288.918,235.600 289.400 C 235.600 289.882,235.240 290.602,234.800 291.000 C 234.360 291.398,234.000 292.118,234.000 292.600 C 234.000 293.082,233.640 293.802,233.200 294.200 C 232.760 294.598,232.400 295.318,232.400 295.800 C 232.400 296.282,232.040 297.002,231.600 297.400 C 231.160 297.798,230.800 298.518,230.800 299.000 C 230.800 299.482,230.440 300.202,230.000 300.600 C 229.560 300.998,229.200 301.724,229.200 302.213 C 229.200 302.702,228.930 303.326,228.600 303.600 C 228.270 303.874,228.000 304.465,228.000 304.913 C 228.000 305.429,225.946 307.771,222.400 311.298 C 218.647 315.030,216.799 317.153,216.798 317.734 C 216.797 318.268,215.876 319.485,214.398 320.907 C 213.040 322.214,212.000 323.561,212.000 324.013 C 212.000 325.236,193.970 343.200,192.743 343.200 C 192.220 343.200,191.568 343.560,191.293 344.000 C 191.015 344.444,190.360 344.800,189.819 344.800 C 189.131 344.800,187.922 345.738,185.696 348.000 C 183.790 349.937,182.223 351.200,181.727 351.200 C 181.218 351.200,179.488 352.645,177.179 355.000 C 174.749 357.478,173.152 358.800,172.588 358.800 C 172.113 358.800,171.398 359.160,171.000 359.600 C 169.880 360.838,153.862 360.838,153.200 359.600 C 152.835 358.918,152.362 358.800,150.000 358.800 C 147.638 358.800,147.165 358.682,146.800 358.000 C 146.525 357.486,145.962 357.200,145.229 357.200 C 144.582 357.200,143.986 356.940,143.855 356.600 C 143.729 356.270,143.168 356.000,142.609 356.000 C 142.050 356.000,141.284 355.640,140.907 355.200 C 140.530 354.760,139.810 354.400,139.307 354.400 C 138.804 354.400,138.084 354.040,137.707 353.600 C 137.330 353.160,136.610 352.800,136.107 352.800 C 135.604 352.800,134.884 352.440,134.507 352.000 C 134.130 351.560,133.410 351.200,132.907 351.200 C 132.404 351.200,131.684 350.840,131.307 350.400 C 130.930 349.960,130.229 349.600,129.748 349.600 C 129.210 349.600,127.958 348.676,126.496 347.200 C 125.188 345.880,123.773 344.800,123.351 344.800 C 122.913 344.800,120.880 343.088,118.600 340.800 C 116.192 338.383,114.297 336.800,113.811 336.800 C 111.993 336.800,98.000 322.027,98.000 320.107 C 98.000 318.840,97.796 318.280,97.200 317.907 C 96.529 317.488,96.400 316.974,96.400 314.718 C 96.400 312.438,96.278 311.963,95.600 311.600 C 95.079 311.321,94.800 310.762,94.800 310.000 C 94.800 309.238,94.521 308.679,94.000 308.400 C 93.318 308.035,93.200 307.562,93.200 305.200 C 93.200 302.838,93.082 302.365,92.400 302.000 C 91.718 301.635,91.600 301.162,91.600 298.800 C 91.600 296.438,91.482 295.965,90.800 295.600 C 90.130 295.241,90.000 294.762,90.000 292.648 C 90.000 290.632,89.839 289.978,89.200 289.400 C 88.564 288.825,88.400 288.168,88.400 286.200 C 88.400 284.232,88.236 283.575,87.600 283.000 C 86.964 282.425,86.800 281.768,86.800 279.800 C 86.800 277.832,86.636 277.175,86.000 276.600 C 85.560 276.202,85.200 275.482,85.200 275.000 C 85.200 274.518,84.840 273.798,84.400 273.400 C 83.761 272.822,83.600 272.168,83.600 270.152 C 83.600 268.038,83.470 267.559,82.800 267.200 C 82.279 266.921,82.000 266.362,82.000 265.600 C 82.000 264.838,81.721 264.279,81.200 264.000 C 80.566 263.661,80.400 263.162,80.400 261.600 C 80.400 260.038,80.234 259.539,79.600 259.200 C 79.079 258.921,78.800 258.362,78.800 257.600 C 78.800 256.838,78.521 256.279,78.000 256.000 C 77.322 255.637,77.200 255.162,77.200 252.882 C 77.200 250.626,77.071 250.112,76.400 249.693 C 75.915 249.390,75.600 248.760,75.600 248.093 C 75.600 247.426,75.285 246.796,74.800 246.493 C 74.315 246.190,74.000 245.560,74.000 244.893 C 74.000 244.226,73.685 243.596,73.200 243.293 C 72.700 242.981,72.400 242.360,72.400 241.639 C 72.400 240.983,72.141 240.386,71.800 240.255 C 71.470 240.129,71.200 239.597,71.200 239.075 C 71.200 238.552,70.840 237.798,70.400 237.400 C 69.960 237.002,69.600 236.282,69.600 235.800 C 69.600 235.318,69.240 234.598,68.800 234.200 C 68.360 233.802,68.000 233.082,68.000 232.600 C 68.000 232.118,67.640 231.398,67.200 231.000 C 66.760 230.602,66.400 229.882,66.400 229.400 C 66.400 228.918,66.040 228.198,65.600 227.800 C 64.960 227.221,64.800 226.568,64.800 224.541 C 64.800 222.440,64.663 221.921,64.000 221.507 C 63.382 221.121,63.200 220.574,63.200 219.107 C 63.200 217.640,63.018 217.093,62.400 216.707 C 61.729 216.288,61.600 215.774,61.600 213.518 C 61.600 211.238,61.478 210.763,60.800 210.400 C 59.551 209.732,59.551 187.068,60.800 186.400 C 61.508 186.021,61.600 185.562,61.600 182.400 C 61.600 179.238,61.692 178.779,62.400 178.400 C 63.078 178.037,63.200 177.562,63.200 175.282 C 63.200 173.026,63.329 172.512,64.000 172.093 C 64.663 171.679,64.800 171.160,64.800 169.059 C 64.800 167.032,64.960 166.379,65.600 165.800 C 66.158 165.295,66.400 164.568,66.400 163.400 C 66.400 162.232,66.642 161.505,67.200 161.000 C 67.834 160.426,68.000 159.768,68.000 157.827 C 68.000 155.873,68.162 155.239,68.800 154.693 C 69.447 154.139,69.600 153.513,69.600 151.418 C 69.600 149.238,69.726 148.760,70.400 148.400 C 71.083 148.034,71.200 147.562,71.200 145.173 C 71.200 143.055,71.346 142.319,71.800 142.145 C 72.247 141.973,72.400 141.261,72.400 139.353 C 72.400 137.287,72.555 136.660,73.200 136.107 C 73.843 135.557,74.000 134.927,74.000 132.907 C 74.000 130.887,74.157 130.257,74.800 129.707 C 75.438 129.161,75.600 128.527,75.600 126.573 C 75.600 124.632,75.766 123.974,76.400 123.400 C 77.036 122.825,77.200 122.168,77.200 120.200 C 77.200 118.232,77.364 117.575,78.000 117.000 C 78.640 116.421,78.800 115.768,78.800 113.741 C 78.800 111.640,78.937 111.121,79.600 110.707 C 80.272 110.288,80.400 109.774,80.400 107.507 C 80.400 105.240,80.528 104.727,81.200 104.307 C 81.901 103.870,82.000 103.374,82.000 100.318 C 82.000 97.238,82.094 96.778,82.800 96.400 C 83.543 96.002,83.600 95.562,83.600 90.248 C 83.600 85.032,83.671 84.460,84.400 83.800 C 85.036 83.225,85.200 82.568,85.200 80.600 C 85.200 78.632,85.364 77.975,86.000 77.400 C 86.558 76.895,86.800 76.168,86.800 75.000 C 86.800 73.832,87.042 73.105,87.600 72.600 C 88.040 72.202,88.400 71.455,88.400 70.941 C 88.400 70.427,88.760 69.782,89.200 69.507 C 89.685 69.204,90.000 68.574,90.000 67.907 C 90.000 67.240,90.315 66.610,90.800 66.307 C 91.252 66.025,91.602 65.371,91.604 64.804 C 91.607 64.138,92.143 63.329,93.200 62.400 C 94.178 61.540,94.794 60.647,94.796 60.086 C 94.801 58.902,100.035 53.600,101.199 53.600 C 101.653 53.600,102.687 52.880,103.496 52.000 C 104.799 50.583,105.176 50.400,106.787 50.400 C 108.174 50.400,108.726 50.210,109.107 49.600 C 109.521 48.937,110.040 48.800,112.141 48.800 C 114.168 48.800,114.821 48.640,115.400 48.000 C 115.975 47.364,116.632 47.200,118.600 47.200 C 120.568 47.200,121.225 47.036,121.800 46.400 C 122.374 45.766,123.032 45.600,124.973 45.600 C 126.927 45.600,127.561 45.438,128.107 44.800 C 128.657 44.157,129.287 44.000,131.307 44.000 C 133.327 44.000,133.957 43.843,134.507 43.200 C 135.057 42.557,135.687 42.400,137.707 42.400 C 139.727 42.400,140.357 42.243,140.907 41.600 C 141.394 41.032,142.087 40.800,143.300 40.800 C 144.574 40.800,145.134 40.597,145.507 40.000 C 145.893 39.382,146.440 39.200,147.907 39.200 C 149.374 39.200,149.921 39.018,150.307 38.400 C 150.728 37.726,151.240 37.600,153.561 37.600 C 155.639 37.600,156.371 37.453,156.545 37.000 C 156.671 36.670,157.203 36.400,157.725 36.400 C 158.248 36.400,159.002 36.040,159.400 35.600 C 159.905 35.042,160.632 34.800,161.800 34.800 C 162.968 34.800,163.695 34.558,164.200 34.000 C 164.705 33.442,165.432 33.200,166.600 33.200 C 167.768 33.200,168.495 32.958,169.000 32.400 C 169.512 31.834,170.232 31.600,171.459 31.600 C 172.760 31.600,173.318 31.400,173.693 30.800 C 174.079 30.182,174.626 30.000,176.093 30.000 C 177.560 30.000,178.107 29.818,178.493 29.200 C 178.796 28.715,179.426 28.400,180.093 28.400 C 180.760 28.400,181.390 28.085,181.693 27.600 C 182.078 26.983,182.626 26.800,184.082 26.800 C 185.562 26.800,186.065 26.627,186.400 26.000 C 186.679 25.479,187.238 25.200,188.000 25.200 C 188.762 25.200,189.321 24.921,189.600 24.400 C 189.939 23.766,190.438 23.600,192.000 23.600 C 193.562 23.600,194.061 23.434,194.400 22.800 C 194.765 22.118,195.238 22.000,197.600 22.000 C 199.962 22.000,200.435 21.882,200.800 21.200 C 201.163 20.522,201.638 20.400,203.918 20.400 C 206.174 20.400,206.688 20.271,207.107 19.600 C 207.542 18.904,208.040 18.800,210.941 18.800 C 213.768 18.800,214.386 18.678,215.000 18.000 C 215.611 17.325,216.232 17.200,218.973 17.200 C 221.727 17.200,222.327 17.078,222.907 16.400 C 223.546 15.654,224.087 15.600,230.982 15.600 C 237.962 15.600,238.396 15.556,238.800 14.800 C 239.193 14.067,239.638 14.000,244.152 14.000 C 248.568 14.000,249.151 14.083,249.800 14.800 M262.400 81.200 C 262.765 81.882,263.238 82.000,265.600 82.000 C 267.962 82.000,268.435 82.118,268.800 82.800 C 269.139 83.434,269.638 83.600,271.200 83.600 C 272.762 83.600,273.261 83.766,273.600 84.400 C 273.975 85.101,274.438 85.200,277.352 85.200 C 280.168 85.200,280.787 85.322,281.400 86.000 C 282.059 86.728,282.632 86.800,287.800 86.800 C 292.943 86.800,293.543 86.874,294.191 87.590 C 294.830 88.296,295.520 88.391,300.753 88.490 L 306.600 88.600 306.732 89.754 C 306.890 91.136,303.597 94.800,302.196 94.800 C 301.738 94.800,300.659 95.520,299.800 96.400 C 298.941 97.280,297.861 98.000,297.400 98.000 C 296.939 98.000,295.859 98.720,295.000 99.600 C 294.141 100.480,293.069 101.204,292.619 101.209 C 292.160 101.214,290.747 102.270,289.406 103.609 C 288.084 104.930,286.652 106.003,286.206 106.007 C 285.763 106.010,284.693 106.730,283.830 107.607 L 282.259 109.200 278.192 109.200 C 274.632 109.200,274.034 109.100,273.400 108.400 C 272.787 107.722,272.168 107.600,269.352 107.600 C 266.438 107.600,265.975 107.501,265.600 106.800 C 265.321 106.279,264.762 106.000,264.000 106.000 C 263.238 106.000,262.679 105.721,262.400 105.200 C 262.061 104.566,261.562 104.400,260.000 104.400 C 258.408 104.400,257.942 104.239,257.580 103.562 L 257.132 102.725 256.240 103.562 C 255.750 104.023,254.957 104.400,254.478 104.400 C 253.999 104.400,253.382 104.760,253.107 105.200 C 252.804 105.685,252.174 106.000,251.507 106.000 C 250.840 106.000,250.210 106.315,249.907 106.800 C 249.606 107.282,248.974 107.600,248.318 107.600 C 247.638 107.600,247.067 107.901,246.800 108.400 C 246.521 108.921,245.962 109.200,245.200 109.200 C 244.438 109.200,243.879 109.479,243.600 110.000 C 243.261 110.634,242.762 110.800,241.200 110.800 C 239.638 110.800,239.139 110.966,238.800 111.600 C 238.406 112.336,237.962 112.400,233.282 112.400 C 228.626 112.400,228.150 112.468,227.693 113.200 C 227.279 113.863,226.760 114.000,224.659 114.000 C 222.632 114.000,221.979 114.160,221.400 114.800 C 220.589 115.696,219.207 115.847,218.480 115.120 C 217.638 114.278,217.870 109.842,218.800 109.000 C 219.536 108.334,219.600 107.768,219.600 101.907 L 219.600 95.538 220.769 94.369 C 221.718 93.420,222.281 93.200,223.755 93.200 C 225.162 93.200,225.668 93.020,226.000 92.400 C 226.363 91.722,226.838 91.600,229.118 91.600 C 231.374 91.600,231.888 91.471,232.307 90.800 C 232.721 90.137,233.240 90.000,235.341 90.000 C 237.368 90.000,238.021 89.840,238.600 89.200 C 239.105 88.642,239.832 88.400,241.000 88.400 C 242.168 88.400,242.895 88.158,243.400 87.600 C 243.798 87.160,244.518 86.800,245.000 86.800 C 245.482 86.800,246.202 86.440,246.600 86.000 C 247.102 85.445,247.832 85.200,248.981 85.200 C 250.387 85.200,250.874 84.958,252.200 83.600 C 253.062 82.718,254.147 82.000,254.619 82.000 C 255.090 82.000,255.802 81.640,256.200 81.200 C 256.778 80.561,257.432 80.400,259.448 80.400 C 261.562 80.400,262.041 80.530,262.400 81.200 M263.989 114.379 C 264.305 114.970,264.912 115.188,266.503 115.279 C 268.531 115.396,268.604 115.441,268.722 116.656 C 268.867 118.148,265.344 122.000,263.835 122.000 C 263.363 122.000,262.670 122.360,262.293 122.800 C 261.916 123.240,261.218 123.600,260.742 123.600 C 260.259 123.600,259.181 124.309,258.307 125.200 C 257.371 126.155,256.365 126.800,255.812 126.800 C 255.302 126.800,254.782 127.070,254.655 127.400 C 254.528 127.733,253.930 128.002,253.313 128.004 C 252.519 128.007,251.798 128.465,250.800 129.600 C 249.818 130.717,249.076 131.193,248.314 131.196 C 247.640 131.199,247.066 131.504,246.800 132.000 C 246.521 132.521,245.962 132.800,245.200 132.800 C 244.438 132.800,243.879 133.079,243.600 133.600 C 243.321 134.121,242.762 134.400,242.000 134.400 C 241.238 134.400,240.679 134.679,240.400 135.200 C 240.121 135.721,239.562 136.000,238.800 136.000 C 238.038 136.000,237.479 136.279,237.200 136.800 C 236.933 137.299,236.362 137.600,235.682 137.600 C 235.026 137.600,234.394 137.918,234.093 138.400 C 233.790 138.885,233.160 139.200,232.493 139.200 C 231.826 139.200,231.196 139.515,230.893 140.000 C 230.523 140.593,229.960 140.800,228.722 140.800 C 227.569 140.800,226.771 141.063,226.146 141.651 L 225.240 142.502 224.020 141.282 C 223.300 140.562,222.800 139.645,222.800 139.045 C 222.800 138.438,222.478 137.856,222.000 137.600 C 221.276 137.213,221.200 136.762,221.200 132.882 C 221.200 128.995,221.123 128.544,220.383 128.082 C 219.662 127.632,219.579 127.230,219.683 124.686 L 219.800 121.800 227.369 121.691 C 234.387 121.590,234.978 121.524,235.491 120.791 C 235.943 120.146,236.508 120.000,238.561 120.000 C 240.568 120.000,241.222 119.838,241.800 119.200 C 242.375 118.564,243.032 118.400,245.000 118.400 C 246.968 118.400,247.625 118.236,248.200 117.600 C 248.598 117.160,249.318 116.800,249.800 116.800 C 250.282 116.800,251.002 116.440,251.400 116.000 C 251.798 115.560,252.518 115.200,253.000 115.200 C 253.482 115.200,254.202 114.840,254.600 114.400 C 255.679 113.208,263.353 113.191,263.989 114.379 M361.100 148.147 C 361.873 148.943,362.400 149.896,362.400 150.500 C 362.400 151.058,362.670 151.618,363.000 151.745 C 363.372 151.887,363.600 152.496,363.600 153.345 C 363.600 154.193,363.372 154.802,363.000 154.945 C 362.670 155.071,362.400 155.607,362.400 156.135 C 362.400 156.789,361.498 158.004,359.570 159.947 L 356.740 162.800 349.213 162.800 C 340.943 162.800,341.200 162.881,341.200 160.272 C 341.200 159.178,342.012 158.196,347.295 152.905 L 353.390 146.800 356.595 146.804 C 359.702 146.808,359.840 146.850,361.100 148.147 " stroke="none" fill="#040404" fill-rule="evenodd"></path><path id="path2" d="" stroke="none" fill="#bc10080" fill-rule="evenodd"></path><path id="path3" d="" stroke="none" fill="#bc10080" fill-rule="evenodd"></path><path id="path4" d="" stroke="none" fill="#bc10080" fill-rule="evenodd"></path></g></svg>