<svg id="svg" version="1.1" xmlns="http://www.w3.org/2000/svg" xmlns:xlink="http://www.w3.org/1999/xlink" width="400" height="458.49802371541506" viewBox="0, 0, 400,458.49802371541506"><g id="svgg"><path id="path0" d="M225.200 6.400 C 225.200 7.154,224.933 7.200,220.600 7.200 C 216.267 7.200,216.000 7.246,216.000 8.000 C 216.000 8.747,215.733 8.800,212.000 8.800 C 208.267 8.800,208.000 8.853,208.000 9.600 C 208.000 10.333,207.733 10.400,204.800 10.400 C 201.867 10.400,201.600 10.467,201.600 11.200 C 201.600 11.933,201.333 12.000,198.400 12.000 C 195.467 12.000,195.200 12.067,195.200 12.800 C 195.200 13.511,194.933 13.600,192.800 13.600 C 190.667 13.600,190.400 13.689,190.400 14.400 C 190.400 15.133,190.133 15.200,187.200 15.200 C 184.267 15.200,184.000 15.267,184.000 16.000 C 184.000 16.648,183.733 16.800,182.600 16.800 C 181.622 16.800,181.200 16.981,181.200 17.400 C 181.200 17.867,180.667 18.000,178.800 18.000 C 176.667 18.000,176.400 18.089,176.400 18.800 C 176.400 19.467,176.133 19.600,174.800 19.600 C 173.467 19.600,173.200 19.733,173.200 20.400 C 173.200 21.111,172.933 21.200,170.800 21.200 C 168.667 21.200,168.400 21.289,168.400 22.000 C 168.400 22.711,168.133 22.800,166.000 22.800 C 163.867 22.800,163.600 22.889,163.600 23.600 C 163.600 24.267,163.333 24.400,162.000 24.400 C 160.667 24.400,160.400 24.533,160.400 25.200 C 160.400 25.933,160.133 26.000,157.200 26.000 C 154.267 26.000,154.000 26.067,154.000 26.800 C 154.000 27.452,153.733 27.600,152.563 27.600 C 151.462 27.600,151.076 27.787,150.916 28.400 C 150.739 29.075,150.370 29.200,148.553 29.200 C 146.667 29.200,146.400 29.299,146.400 30.000 C 146.400 30.733,146.133 30.800,143.200 30.800 C 140.267 30.800,140.000 30.867,140.000 31.600 C 140.000 32.311,139.733 32.400,137.600 32.400 C 135.467 32.400,135.200 32.489,135.200 33.200 C 135.200 33.933,134.933 34.000,132.000 34.000 C 129.067 34.000,128.800 34.067,128.800 34.800 C 128.800 35.533,128.533 35.600,125.600 35.600 C 122.667 35.600,122.400 35.667,122.400 36.400 C 122.400 37.129,122.133 37.200,119.400 37.200 C 116.667 37.200,116.400 37.271,116.400 38.000 C 116.400 38.747,116.133 38.800,112.400 38.800 C 108.667 38.800,108.400 38.853,108.400 39.600 C 108.400 40.311,108.133 40.400,106.000 40.400 C 103.867 40.400,103.600 40.489,103.600 41.200 C 103.600 41.911,103.333 42.000,101.200 42.000 C 99.067 42.000,98.800 42.089,98.800 42.800 C 98.800 43.333,98.533 43.600,98.000 43.600 C 97.467 43.600,97.200 43.867,97.200 44.400 C 97.200 45.067,96.933 45.200,95.600 45.200 C 94.267 45.200,94.000 45.333,94.000 46.000 C 94.000 46.533,93.733 46.800,93.200 46.800 C 92.667 46.800,92.400 47.067,92.400 47.600 C 92.400 48.133,92.133 48.400,91.600 48.400 C 91.160 48.400,90.800 48.658,90.800 48.973 C 90.800 49.288,90.440 49.660,90.000 49.800 C 89.560 49.940,89.200 50.291,89.200 50.580 C 89.200 50.870,88.840 51.201,88.400 51.316 C 87.960 51.431,87.600 51.791,87.600 52.116 C 87.600 52.441,87.240 52.801,86.800 52.916 C 86.194 53.075,86.000 53.462,86.000 54.516 C 86.000 55.570,85.806 55.957,85.200 56.116 C 84.760 56.231,84.400 56.612,84.400 56.963 C 84.400 57.313,84.130 57.600,83.800 57.600 C 83.367 57.600,83.200 58.044,83.200 59.200 C 83.200 60.533,83.067 60.800,82.400 60.800 C 81.733 60.800,81.600 61.067,81.600 62.400 C 81.600 63.733,81.467 64.000,80.800 64.000 C 80.133 64.000,80.000 64.267,80.000 65.600 C 80.000 66.933,79.867 67.200,79.200 67.200 C 78.489 67.200,78.400 67.467,78.400 69.600 C 78.400 71.733,78.311 72.000,77.600 72.000 C 76.889 72.000,76.800 72.267,76.800 74.400 C 76.800 76.533,76.711 76.800,76.000 76.800 C 75.230 76.800,75.200 77.067,75.200 83.800 C 75.200 90.533,75.170 90.800,74.400 90.800 C 73.653 90.800,73.600 91.067,73.600 94.800 C 73.600 98.533,73.547 98.800,72.800 98.800 C 72.067 98.800,72.000 99.067,72.000 102.000 C 72.000 104.933,71.933 105.200,71.200 105.200 C 70.467 105.200,70.400 105.467,70.400 108.400 C 70.400 111.333,70.333 111.600,69.600 111.600 C 68.871 111.600,68.800 111.867,68.800 114.600 C 68.800 117.333,68.729 117.600,68.000 117.600 C 67.267 117.600,67.200 117.867,67.200 120.800 C 67.200 123.733,67.133 124.000,66.400 124.000 C 65.667 124.000,65.600 124.267,65.600 127.200 C 65.600 130.133,65.533 130.400,64.800 130.400 C 64.067 130.400,64.000 130.667,64.000 133.600 C 64.000 136.533,63.933 136.800,63.200 136.800 C 62.467 136.800,62.400 137.067,62.400 140.000 C 62.400 142.933,62.333 143.200,61.600 143.200 C 60.898 143.200,60.800 143.467,60.800 145.373 C 60.800 147.195,60.671 147.587,60.000 147.800 C 59.295 148.024,59.200 148.405,59.200 151.027 C 59.200 153.733,59.128 154.000,58.400 154.000 C 57.667 154.000,57.600 154.267,57.600 157.200 C 57.600 160.133,57.533 160.400,56.800 160.400 C 56.067 160.400,56.000 160.667,56.000 163.600 C 56.000 166.533,55.933 166.800,55.200 166.800 C 54.467 166.800,54.400 167.067,54.400 170.000 C 54.400 172.933,54.333 173.200,53.600 173.200 C 52.867 173.200,52.800 173.467,52.800 176.400 C 52.800 179.333,52.733 179.600,52.000 179.600 C 51.271 179.600,51.200 179.867,51.200 182.600 C 51.200 185.000,51.080 185.600,50.600 185.600 C 50.079 185.600,50.000 187.289,50.000 198.400 C 50.000 209.511,50.079 211.200,50.600 211.200 C 51.080 211.200,51.200 211.800,51.200 214.200 C 51.200 216.933,51.271 217.200,52.000 217.200 C 52.733 217.200,52.800 217.467,52.800 220.400 C 52.800 223.333,52.867 223.600,53.600 223.600 C 54.267 223.600,54.400 223.867,54.400 225.200 C 54.400 226.533,54.533 226.800,55.200 226.800 C 55.867 226.800,56.000 227.067,56.000 228.400 C 56.000 229.733,56.133 230.000,56.800 230.000 C 57.467 230.000,57.600 230.267,57.600 231.600 C 57.600 232.933,57.733 233.200,58.400 233.200 C 59.067 233.200,59.200 233.467,59.200 234.800 C 59.200 236.133,59.333 236.400,60.000 236.400 C 60.667 236.400,60.800 236.667,60.800 238.000 C 60.800 239.333,60.933 239.600,61.600 239.600 C 62.267 239.600,62.400 239.867,62.400 241.200 C 62.400 242.533,62.533 242.800,63.200 242.800 C 63.848 242.800,64.000 243.067,64.000 244.200 C 64.000 245.333,64.152 245.600,64.800 245.600 C 65.467 245.600,65.600 245.867,65.600 247.200 C 65.600 248.533,65.733 248.800,66.400 248.800 C 67.067 248.800,67.200 249.067,67.200 250.400 C 67.200 251.733,67.333 252.000,68.000 252.000 C 68.733 252.000,68.800 252.267,68.800 255.200 C 68.800 258.133,68.867 258.400,69.600 258.400 C 70.267 258.400,70.400 258.667,70.400 260.000 C 70.400 261.333,70.533 261.600,71.200 261.600 C 71.911 261.600,72.000 261.867,72.000 264.000 C 72.000 266.133,72.089 266.400,72.800 266.400 C 73.467 266.400,73.600 266.667,73.600 268.000 C 73.600 269.333,73.733 269.600,74.400 269.600 C 75.133 269.600,75.200 269.867,75.200 272.800 C 75.200 275.733,75.267 276.000,76.000 276.000 C 76.648 276.000,76.800 276.267,76.800 277.400 C 76.800 278.533,76.952 278.800,77.600 278.800 C 78.333 278.800,78.400 279.067,78.400 282.000 C 78.400 284.933,78.467 285.200,79.200 285.200 C 79.933 285.200,80.000 285.467,80.000 288.400 C 80.000 291.333,80.067 291.600,80.800 291.600 C 81.533 291.600,81.600 291.867,81.600 294.800 C 81.600 297.733,81.667 298.000,82.400 298.000 C 83.133 298.000,83.200 298.267,83.200 301.200 C 83.200 303.778,83.317 304.400,83.800 304.400 C 84.280 304.400,84.400 304.997,84.400 307.373 C 84.400 309.995,84.495 310.376,85.200 310.600 C 85.795 310.789,86.000 311.205,86.000 312.227 C 86.000 313.333,86.155 313.600,86.800 313.600 C 87.533 313.600,87.600 313.867,87.600 316.800 C 87.600 319.733,87.667 320.000,88.400 320.000 C 89.133 320.000,89.200 320.267,89.200 323.200 C 89.200 326.133,89.267 326.400,90.000 326.400 C 90.533 326.400,90.800 326.667,90.800 327.200 C 90.800 327.733,91.067 328.000,91.600 328.000 C 92.133 328.000,92.400 328.267,92.400 328.800 C 92.400 329.333,92.667 329.600,93.200 329.600 C 93.733 329.600,94.000 329.867,94.000 330.400 C 94.000 330.933,94.267 331.200,94.800 331.200 C 95.333 331.200,95.600 331.467,95.600 332.000 C 95.600 332.533,95.867 332.800,96.400 332.800 C 96.933 332.800,97.200 333.067,97.200 333.600 C 97.200 334.133,97.467 334.400,98.000 334.400 C 98.533 334.400,98.800 334.667,98.800 335.200 C 98.800 335.733,99.067 336.000,99.600 336.000 C 100.133 336.000,100.400 336.267,100.400 336.800 C 100.400 337.333,100.667 337.600,101.200 337.600 C 101.733 337.600,102.000 337.867,102.000 338.400 C 102.000 338.933,102.267 339.200,102.800 339.200 C 103.333 339.200,103.600 339.467,103.600 340.000 C 103.600 340.533,103.867 340.800,104.400 340.800 C 104.933 340.800,105.200 341.067,105.200 341.600 C 105.200 342.133,105.467 342.400,106.000 342.400 C 106.444 342.400,106.800 342.667,106.800 343.000 C 106.800 343.433,107.244 343.600,108.400 343.600 C 109.733 343.600,110.000 343.733,110.000 344.400 C 110.000 344.933,110.267 345.200,110.800 345.200 C 111.333 345.200,111.600 345.467,111.600 346.000 C 111.600 346.533,111.867 346.800,112.400 346.800 C 112.933 346.800,113.200 347.067,113.200 347.600 C 113.200 348.133,113.467 348.400,114.000 348.400 C 114.533 348.400,114.800 348.667,114.800 349.200 C 114.800 349.733,115.067 350.000,115.600 350.000 C 116.133 350.000,116.400 350.267,116.400 350.800 C 116.400 351.448,116.667 351.600,117.800 351.600 C 118.933 351.600,119.200 351.752,119.200 352.400 C 119.200 352.933,119.467 353.200,120.000 353.200 C 120.533 353.200,120.800 353.467,120.800 354.000 C 120.800 354.533,121.067 354.800,121.600 354.800 C 122.133 354.800,122.400 355.067,122.400 355.600 C 122.400 356.267,122.667 356.400,124.000 356.400 C 125.333 356.400,125.600 356.533,125.600 357.200 C 125.600 357.867,125.867 358.000,127.200 358.000 C 128.533 358.000,128.800 358.133,128.800 358.800 C 128.800 359.467,129.067 359.600,130.400 359.600 C 131.733 359.600,132.000 359.733,132.000 360.400 C 132.000 361.067,132.267 361.200,133.600 361.200 C 134.933 361.200,135.200 361.333,135.200 362.000 C 135.200 362.533,135.467 362.800,136.000 362.800 C 136.533 362.800,136.800 363.067,136.800 363.600 C 136.800 364.311,137.067 364.400,139.200 364.400 C 141.333 364.400,141.600 364.489,141.600 365.200 C 141.600 365.867,141.867 366.000,143.200 366.000 C 144.533 366.000,144.800 366.133,144.800 366.800 C 144.800 367.543,145.067 367.600,148.553 367.600 C 151.970 367.600,152.325 367.672,152.516 368.400 C 152.844 369.654,173.200 369.654,173.200 368.400 C 173.200 367.733,173.467 367.600,174.800 367.600 C 176.133 367.600,176.400 367.467,176.400 366.800 C 176.400 366.133,176.667 366.000,178.000 366.000 C 179.333 366.000,179.600 365.867,179.600 365.200 C 179.600 364.555,179.867 364.400,180.973 364.400 C 181.995 364.400,182.411 364.195,182.600 363.600 C 182.740 363.160,183.112 362.800,183.427 362.800 C 183.742 362.800,184.000 362.440,184.000 362.000 C 184.000 361.467,184.267 361.200,184.800 361.200 C 185.333 361.200,185.600 360.933,185.600 360.400 C 185.600 359.867,185.867 359.600,186.400 359.600 C 186.933 359.600,187.200 359.333,187.200 358.800 C 187.200 358.267,187.467 358.000,188.000 358.000 C 188.533 358.000,188.800 357.733,188.800 357.200 C 188.800 356.667,189.067 356.400,189.600 356.400 C 190.133 356.400,190.400 356.133,190.400 355.600 C 190.400 354.933,190.667 354.800,192.000 354.800 C 193.333 354.800,193.600 354.667,193.600 354.000 C 193.600 353.467,193.867 353.200,194.400 353.200 C 194.933 353.200,195.200 352.933,195.200 352.400 C 195.200 351.867,195.467 351.600,196.000 351.600 C 196.533 351.600,196.800 351.333,196.800 350.800 C 196.800 350.267,197.067 350.000,197.600 350.000 C 198.133 350.000,198.400 349.733,198.400 349.200 C 198.400 348.667,198.667 348.400,199.200 348.400 C 199.733 348.400,200.000 348.133,200.000 347.600 C 200.000 347.067,200.267 346.800,200.800 346.800 C 201.333 346.800,201.600 346.533,201.600 346.000 C 201.600 345.467,201.867 345.200,202.400 345.200 C 202.933 345.200,203.200 344.933,203.200 344.400 C 203.200 343.867,203.467 343.600,204.000 343.600 C 204.440 343.600,204.800 343.351,204.800 343.047 C 204.800 342.742,205.160 342.399,205.600 342.284 C 206.040 342.169,206.400 341.809,206.400 341.484 C 206.400 341.159,206.760 340.799,207.200 340.684 C 207.640 340.569,208.000 340.188,208.000 339.837 C 208.000 339.467,208.335 339.200,208.800 339.200 C 209.333 339.200,209.600 338.933,209.600 338.400 C 209.600 337.867,209.867 337.600,210.400 337.600 C 210.933 337.600,211.200 337.333,211.200 336.800 C 211.200 336.267,211.467 336.000,212.000 336.000 C 212.517 336.000,212.800 335.733,212.800 335.247 C 212.800 334.830,213.157 334.400,213.600 334.284 C 214.040 334.169,214.400 333.809,214.400 333.484 C 214.400 333.159,214.760 332.799,215.200 332.684 C 215.640 332.569,216.000 332.188,216.000 331.837 C 216.000 331.487,216.270 331.200,216.600 331.200 C 216.933 331.200,217.200 330.844,217.200 330.400 C 217.200 329.867,217.467 329.600,218.000 329.600 C 218.667 329.600,218.800 329.333,218.800 328.000 C 218.800 326.667,218.933 326.400,219.600 326.400 C 220.133 326.400,220.400 326.133,220.400 325.600 C 220.400 325.067,220.667 324.800,221.200 324.800 C 221.733 324.800,222.000 324.533,222.000 324.000 C 222.000 323.467,222.267 323.200,222.800 323.200 C 223.333 323.200,223.600 322.933,223.600 322.400 C 223.600 321.867,223.867 321.600,224.400 321.600 C 224.933 321.600,225.200 321.333,225.200 320.800 C 225.200 320.267,225.467 320.000,226.000 320.000 C 226.667 320.000,226.800 319.733,226.800 318.400 C 226.800 317.067,226.933 316.800,227.600 316.800 C 228.133 316.800,228.400 316.533,228.400 316.000 C 228.400 315.467,228.667 315.200,229.200 315.200 C 229.733 315.200,230.000 314.933,230.000 314.400 C 230.000 313.867,230.267 313.600,230.800 313.600 C 231.445 313.600,231.600 313.333,231.600 312.227 C 231.600 311.205,231.805 310.789,232.400 310.600 C 232.840 310.460,233.200 310.109,233.200 309.820 C 233.200 309.530,233.560 309.199,234.000 309.084 C 234.440 308.969,234.800 308.588,234.800 308.237 C 234.800 307.867,235.135 307.600,235.600 307.600 C 236.267 307.600,236.400 307.333,236.400 306.000 C 236.400 304.667,236.533 304.400,237.200 304.400 C 237.733 304.400,238.000 304.133,238.000 303.600 C 238.000 303.067,238.267 302.800,238.800 302.800 C 239.467 302.800,239.600 302.533,239.600 301.200 C 239.600 299.867,239.733 299.600,240.400 299.600 C 240.933 299.600,241.200 299.333,241.200 298.800 C 241.200 298.267,241.467 298.000,242.000 298.000 C 242.667 298.000,242.800 297.733,242.800 296.400 C 242.800 295.067,242.933 294.800,243.600 294.800 C 244.133 294.800,244.400 294.533,244.400 294.000 C 244.400 293.467,244.667 293.200,245.200 293.200 C 245.733 293.200,246.000 292.933,246.000 292.400 C 246.000 291.867,246.267 291.600,246.800 291.600 C 247.463 291.600,247.600 291.333,247.600 290.047 C 247.600 288.830,247.773 288.448,248.400 288.284 C 249.013 288.124,249.200 287.738,249.200 286.637 C 249.200 285.626,249.378 285.200,249.800 285.200 C 250.233 285.200,250.400 284.756,250.400 283.600 C 250.400 282.267,250.533 282.000,251.200 282.000 C 251.867 282.000,252.000 281.733,252.000 280.400 C 252.000 279.067,252.133 278.800,252.800 278.800 C 253.448 278.800,253.600 278.533,253.600 277.400 C 253.600 276.267,253.752 276.000,254.400 276.000 C 255.067 276.000,255.200 275.733,255.200 274.400 C 255.200 273.067,255.333 272.800,256.000 272.800 C 256.711 272.800,256.800 272.533,256.800 270.400 C 256.800 268.267,256.889 268.000,257.600 268.000 C 258.267 268.000,258.400 267.733,258.400 266.400 C 258.400 265.067,258.533 264.800,259.200 264.800 C 259.733 264.800,260.000 264.533,260.000 264.000 C 260.000 263.467,260.267 263.200,260.800 263.200 C 261.533 263.200,261.600 262.933,261.600 260.000 C 261.600 257.067,261.667 256.800,262.400 256.800 C 263.067 256.800,263.200 256.533,263.200 255.200 C 263.200 253.867,263.333 253.600,264.000 253.600 C 264.667 253.600,264.800 253.333,264.800 252.000 C 264.800 250.667,264.933 250.400,265.600 250.400 C 266.133 250.400,266.400 250.133,266.400 249.600 C 266.400 249.067,266.667 248.800,267.200 248.800 C 267.901 248.800,268.000 248.533,268.000 246.647 C 268.000 244.830,268.125 244.461,268.800 244.284 C 269.413 244.124,269.600 243.738,269.600 242.637 C 269.600 241.467,269.748 241.200,270.400 241.200 C 271.067 241.200,271.200 240.933,271.200 239.600 C 271.200 238.267,271.333 238.000,272.000 238.000 C 272.667 238.000,272.800 237.733,272.800 236.400 C 272.800 235.067,272.933 234.800,273.600 234.800 C 274.267 234.800,274.400 234.533,274.400 233.200 C 274.400 231.867,274.533 231.600,275.200 231.600 C 275.867 231.600,276.000 231.333,276.000 230.000 C 276.000 228.667,276.133 228.400,276.800 228.400 C 277.467 228.400,277.600 228.133,277.600 226.800 C 277.600 225.467,277.733 225.200,278.400 225.200 C 278.933 225.200,279.200 224.933,279.200 224.400 C 279.200 223.867,279.467 223.600,280.000 223.600 C 280.663 223.600,280.800 223.333,280.800 222.047 C 280.800 220.830,280.973 220.448,281.600 220.284 C 282.213 220.124,282.400 219.738,282.400 218.637 C 282.400 217.626,282.578 217.200,283.000 217.200 C 283.433 217.200,283.600 216.756,283.600 215.600 C 283.600 214.267,283.733 214.000,284.400 214.000 C 285.048 214.000,285.200 213.733,285.200 212.600 C 285.200 211.467,285.352 211.200,286.000 211.200 C 286.533 211.200,286.800 210.933,286.800 210.400 C 286.800 209.867,287.067 209.600,287.600 209.600 C 288.133 209.600,288.400 209.333,288.400 208.800 C 288.400 208.267,288.667 208.000,289.200 208.000 C 289.733 208.000,290.000 207.733,290.000 207.200 C 290.000 206.667,290.267 206.400,290.800 206.400 C 291.467 206.400,291.600 206.133,291.600 204.800 C 291.600 203.467,291.733 203.200,292.400 203.200 C 292.933 203.200,293.200 202.933,293.200 202.400 C 293.200 201.867,293.467 201.600,294.000 201.600 C 294.533 201.600,294.800 201.333,294.800 200.800 C 294.800 200.267,295.067 200.000,295.600 200.000 C 296.133 200.000,296.400 199.733,296.400 199.200 C 296.400 198.667,296.667 198.400,297.200 198.400 C 297.733 198.400,298.000 198.133,298.000 197.600 C 298.000 197.067,298.267 196.800,298.800 196.800 C 299.333 196.800,299.600 196.533,299.600 196.000 C 299.600 195.467,299.867 195.200,300.400 195.200 C 300.933 195.200,301.200 194.933,301.200 194.400 C 301.200 193.867,301.467 193.600,302.000 193.600 C 302.533 193.600,302.800 193.333,302.800 192.800 C 302.800 192.267,303.067 192.000,303.600 192.000 C 304.133 192.000,304.400 191.733,304.400 191.200 C 304.400 190.667,304.667 190.400,305.200 190.400 C 305.733 190.400,306.000 190.133,306.000 189.600 C 306.000 188.933,306.267 188.800,307.600 188.800 C 308.933 188.800,309.200 188.667,309.200 188.000 C 309.200 187.467,309.467 187.200,310.000 187.200 C 310.533 187.200,310.800 186.933,310.800 186.400 C 310.800 185.867,311.067 185.600,311.600 185.600 C 312.133 185.600,312.400 185.333,312.400 184.800 C 312.400 184.148,312.667 184.000,313.837 184.000 C 314.938 184.000,315.324 183.813,315.484 183.200 C 315.599 182.760,315.942 182.400,316.247 182.400 C 316.551 182.400,316.800 182.040,316.800 181.600 C 316.800 181.067,317.067 180.800,317.600 180.800 C 318.040 180.800,318.400 180.551,318.400 180.247 C 318.400 179.942,318.760 179.599,319.200 179.484 C 319.640 179.369,320.000 178.988,320.000 178.637 C 320.000 178.160,320.403 178.000,321.600 178.000 C 322.933 178.000,323.200 177.867,323.200 177.200 C 323.200 176.533,323.467 176.400,324.800 176.400 L 326.400 176.400 326.400 174.800 C 326.400 173.467,326.533 173.200,327.200 173.200 C 327.733 173.200,328.000 172.933,328.000 172.400 C 328.000 171.867,328.267 171.600,328.800 171.600 C 329.333 171.600,329.600 171.333,329.600 170.800 C 329.600 170.067,329.867 170.000,332.800 170.000 C 335.733 170.000,336.000 170.067,336.000 170.800 C 336.000 171.511,336.267 171.600,338.400 171.600 C 340.533 171.600,340.800 171.689,340.800 172.400 C 340.800 173.175,341.067 173.200,349.400 173.200 C 357.733 173.200,358.000 173.175,358.000 172.400 C 358.000 171.689,358.267 171.600,360.400 171.600 C 362.533 171.600,362.800 171.511,362.800 170.800 C 362.800 170.267,363.067 170.000,363.600 170.000 C 364.133 170.000,364.400 169.733,364.400 169.200 C 364.400 168.667,364.667 168.400,365.200 168.400 C 365.733 168.400,366.000 168.133,366.000 167.600 C 366.000 167.067,366.267 166.800,366.800 166.800 C 367.333 166.800,367.600 166.533,367.600 166.000 C 367.600 165.467,367.867 165.200,368.400 165.200 C 368.933 165.200,369.200 164.933,369.200 164.400 C 369.200 163.867,369.467 163.600,370.000 163.600 C 370.667 163.600,370.800 163.333,370.800 162.000 C 370.800 160.667,370.933 160.400,371.600 160.400 C 372.370 160.400,372.400 160.133,372.400 153.400 C 372.400 146.667,372.370 146.400,371.600 146.400 C 371.067 146.400,370.800 146.133,370.800 145.600 C 370.800 145.067,370.533 144.800,370.000 144.800 C 369.467 144.800,369.200 144.533,369.200 144.000 C 369.200 143.467,368.933 143.200,368.400 143.200 C 367.867 143.200,367.600 142.933,367.600 142.400 C 367.600 141.867,367.333 141.600,366.800 141.600 C 366.267 141.600,366.000 141.333,366.000 140.800 C 366.000 140.267,365.733 140.000,365.200 140.000 C 364.533 140.000,364.400 139.733,364.400 138.400 C 364.400 137.067,364.533 136.800,365.200 136.800 C 365.733 136.800,366.000 136.533,366.000 136.000 C 366.000 135.467,366.267 135.200,366.800 135.200 C 367.333 135.200,367.600 134.933,367.600 134.400 C 367.600 133.867,367.867 133.600,368.400 133.600 C 368.933 133.600,369.200 133.333,369.200 132.800 C 369.200 132.267,369.467 132.000,370.000 132.000 C 370.533 132.000,370.800 131.733,370.800 131.200 C 370.800 130.667,371.067 130.400,371.600 130.400 C 372.133 130.400,372.400 130.133,372.400 129.600 C 372.400 129.067,372.667 128.800,373.200 128.800 C 373.733 128.800,374.000 128.533,374.000 128.000 C 374.000 127.467,374.267 127.200,374.800 127.200 C 375.333 127.200,375.600 126.933,375.600 126.400 C 375.600 125.867,375.867 125.600,376.400 125.600 C 376.933 125.600,377.200 125.333,377.200 124.800 C 377.200 124.267,377.467 124.000,378.000 124.000 C 378.533 124.000,378.800 123.733,378.800 123.200 C 378.800 122.667,379.067 122.400,379.600 122.400 C 380.133 122.400,380.400 122.133,380.400 121.600 C 380.400 121.067,380.667 120.800,381.200 120.800 C 381.867 120.800,382.000 120.533,382.000 119.200 C 382.000 118.044,382.167 117.600,382.600 117.600 C 382.933 117.600,383.200 117.244,383.200 116.800 C 383.200 116.267,383.467 116.000,384.000 116.000 C 384.533 116.000,384.800 115.733,384.800 115.200 C 384.800 114.667,385.067 114.400,385.600 114.400 C 386.248 114.400,386.400 114.133,386.400 113.000 C 386.400 111.867,386.552 111.600,387.200 111.600 C 387.733 111.600,388.000 111.333,388.000 110.800 C 388.000 110.267,388.267 110.000,388.800 110.000 C 389.467 110.000,389.600 109.733,389.600 108.400 C 389.600 107.067,389.733 106.800,390.400 106.800 C 391.067 106.800,391.200 106.533,391.200 105.200 C 391.200 103.867,391.333 103.600,392.000 103.600 C 392.770 103.600,392.800 103.333,392.800 96.400 C 392.800 89.467,392.770 89.200,392.000 89.200 C 391.289 89.200,391.200 88.933,391.200 86.800 C 391.200 84.716,391.101 84.400,390.447 84.400 C 390.030 84.400,389.600 84.043,389.484 83.600 C 389.369 83.160,388.988 82.800,388.637 82.800 C 388.176 82.800,388.000 82.414,388.000 81.400 C 388.000 80.267,387.848 80.000,387.200 80.000 C 386.667 80.000,386.400 79.733,386.400 79.200 C 386.400 78.667,386.133 78.400,385.600 78.400 C 385.067 78.400,384.800 78.133,384.800 77.600 C 384.800 77.067,384.533 76.800,384.000 76.800 C 383.467 76.800,383.200 76.533,383.200 76.000 C 383.200 75.556,382.933 75.200,382.600 75.200 C 382.167 75.200,382.000 74.756,382.000 73.600 C 382.000 72.267,381.867 72.000,381.200 72.000 C 380.667 72.000,380.400 71.733,380.400 71.200 C 380.400 70.667,380.133 70.400,379.600 70.400 C 379.067 70.400,378.800 70.133,378.800 69.600 C 378.800 69.067,378.533 68.800,378.000 68.800 C 377.333 68.800,377.200 68.533,377.200 67.200 C 377.200 65.867,377.067 65.600,376.400 65.600 C 375.867 65.600,375.600 65.333,375.600 64.800 C 375.600 64.267,375.333 64.000,374.800 64.000 C 374.267 64.000,374.000 63.733,374.000 63.200 C 374.000 62.667,373.733 62.400,373.200 62.400 C 372.667 62.400,372.400 62.133,372.400 61.600 C 372.400 60.933,372.133 60.800,370.800 60.800 C 369.467 60.800,369.200 60.667,369.200 60.000 C 369.200 59.467,368.933 59.200,368.400 59.200 C 367.867 59.200,367.600 58.933,367.600 58.400 C 367.600 57.867,367.333 57.600,366.800 57.600 C 366.267 57.600,366.000 57.333,366.000 56.800 C 366.000 56.267,365.733 56.000,365.200 56.000 C 364.667 56.000,364.400 55.733,364.400 55.200 C 364.400 54.533,364.133 54.400,362.800 54.400 C 361.467 54.400,361.200 54.267,361.200 53.600 C 361.200 53.067,360.933 52.800,360.400 52.800 C 359.867 52.800,359.600 52.533,359.600 52.000 C 359.600 51.467,359.333 51.200,358.800 51.200 C 358.360 51.200,358.000 50.949,358.000 50.643 C 358.000 49.998,357.148 49.600,355.767 49.600 C 355.174 49.600,354.800 49.368,354.800 49.000 C 354.800 48.667,354.444 48.400,354.000 48.400 C 353.467 48.400,353.200 48.133,353.200 47.600 C 353.200 46.933,352.933 46.800,351.600 46.800 C 350.267 46.800,350.000 46.667,350.000 46.000 C 350.000 45.556,349.733 45.200,349.400 45.200 C 349.067 45.200,348.800 44.844,348.800 44.400 C 348.800 43.733,348.533 43.600,347.200 43.600 C 345.867 43.600,345.600 43.467,345.600 42.800 C 345.600 42.133,345.333 42.000,344.000 42.000 C 342.667 42.000,342.400 41.867,342.400 41.200 C 342.400 40.533,342.133 40.400,340.800 40.400 C 339.467 40.400,339.200 40.267,339.200 39.600 C 339.200 38.933,338.933 38.800,337.600 38.800 C 336.267 38.800,336.000 38.667,336.000 38.000 C 336.000 37.333,335.733 37.200,334.400 37.200 C 333.067 37.200,332.800 37.067,332.800 36.400 C 332.800 35.867,332.533 35.600,332.000 35.600 C 331.467 35.600,331.200 35.333,331.200 34.800 C 331.200 34.089,330.933 34.000,328.800 34.000 C 326.667 34.000,326.400 33.911,326.400 33.200 C 326.400 32.533,326.133 32.400,324.800 32.400 C 323.467 32.400,323.200 32.267,323.200 31.600 C 323.200 30.933,322.933 30.800,321.600 30.800 C 320.267 30.800,320.000 30.667,320.000 30.000 C 320.000 29.333,319.733 29.200,318.400 29.200 C 317.067 29.200,316.800 29.067,316.800 28.400 C 316.800 27.758,316.533 27.600,315.447 27.600 C 314.430 27.600,314.041 27.401,313.884 26.800 C 313.706 26.120,313.338 26.000,311.437 26.000 C 309.467 26.000,309.200 25.905,309.200 25.200 C 309.200 24.533,308.933 24.400,307.600 24.400 C 306.267 24.400,306.000 24.267,306.000 23.600 C 306.000 22.933,305.733 22.800,304.400 22.800 C 303.067 22.800,302.800 22.667,302.800 22.000 C 302.800 21.289,302.533 21.200,300.400 21.200 C 298.267 21.200,298.000 21.111,298.000 20.400 C 298.000 19.733,297.733 19.600,296.400 19.600 C 295.067 19.600,294.800 19.467,294.800 18.800 C 294.800 18.089,294.533 18.000,292.400 18.000 C 290.533 18.000,290.000 17.867,290.000 17.400 C 290.000 16.933,289.467 16.800,287.600 16.800 C 285.467 16.800,285.200 16.711,285.200 16.000 C 285.200 15.297,284.933 15.200,283.000 15.200 C 281.067 15.200,280.800 15.103,280.800 14.400 C 280.800 13.733,280.533 13.600,279.200 13.600 C 277.867 13.600,277.600 13.467,277.600 12.800 C 277.600 12.089,277.333 12.000,275.200 12.000 C 273.067 12.000,272.800 11.911,272.800 11.200 C 272.800 10.489,272.533 10.400,270.400 10.400 C 268.267 10.400,268.000 10.311,268.000 9.600 C 268.000 8.889,267.733 8.800,265.600 8.800 C 263.467 8.800,263.200 8.711,263.200 8.000 C 263.200 7.267,262.933 7.200,260.000 7.200 C 257.067 7.200,256.800 7.133,256.800 6.400 C 256.800 5.614,256.533 5.600,241.000 5.600 C 225.467 5.600,225.200 5.614,225.200 6.400 M249.200 15.800 C 249.200 16.299,249.978 16.400,253.800 16.400 C 258.133 16.400,258.400 16.446,258.400 17.200 C 258.400 17.911,258.667 18.000,260.800 18.000 C 262.933 18.000,263.200 18.089,263.200 18.800 C 263.200 19.511,263.467 19.600,265.600 19.600 C 267.733 19.600,268.000 19.689,268.000 20.400 C 268.000 21.111,268.267 21.200,270.400 21.200 C 272.533 21.200,272.800 21.289,272.800 22.000 C 272.800 22.711,273.067 22.800,275.200 22.800 C 277.333 22.800,277.600 22.889,277.600 23.600 C 277.600 24.267,277.867 24.400,279.200 24.400 C 280.533 24.400,280.800 24.533,280.800 25.200 C 280.800 25.903,281.067 26.000,283.000 26.000 C 284.933 26.000,285.200 26.097,285.200 26.800 C 285.200 27.511,285.467 27.600,287.600 27.600 C 289.733 27.600,290.000 27.689,290.000 28.400 C 290.000 29.067,290.267 29.200,291.600 29.200 C 292.933 29.200,293.200 29.333,293.200 30.000 C 293.200 30.711,293.467 30.800,295.600 30.800 C 297.733 30.800,298.000 30.889,298.000 31.600 C 298.000 32.267,298.267 32.400,299.600 32.400 C 300.933 32.400,301.200 32.533,301.200 33.200 C 301.200 33.867,301.467 34.000,302.800 34.000 C 304.133 34.000,304.400 34.133,304.400 34.800 C 304.400 35.511,304.667 35.600,306.800 35.600 C 308.933 35.600,309.200 35.689,309.200 36.400 C 309.200 37.067,309.467 37.200,310.800 37.200 C 312.133 37.200,312.400 37.333,312.400 38.000 C 312.400 38.667,312.667 38.800,314.000 38.800 C 315.333 38.800,315.600 38.933,315.600 39.600 C 315.600 40.242,315.867 40.400,316.953 40.400 C 317.970 40.400,318.359 40.599,318.516 41.200 C 318.675 41.806,319.062 42.000,320.116 42.000 C 321.170 42.000,321.557 42.194,321.716 42.800 C 321.876 43.413,322.262 43.600,323.363 43.600 C 324.533 43.600,324.800 43.748,324.800 44.400 C 324.800 45.063,325.067 45.200,326.353 45.200 C 327.570 45.200,327.952 45.373,328.116 46.000 C 328.275 46.606,328.662 46.800,329.716 46.800 C 330.770 46.800,331.157 46.994,331.316 47.600 C 331.476 48.213,331.862 48.400,332.963 48.400 C 333.974 48.400,334.400 48.578,334.400 49.000 C 334.400 49.433,334.844 49.600,336.000 49.600 C 337.333 49.600,337.600 49.733,337.600 50.400 C 337.600 51.067,337.867 51.200,339.200 51.200 C 340.533 51.200,340.800 51.333,340.800 52.000 C 340.800 52.667,341.067 52.800,342.400 52.800 C 343.733 52.800,344.000 52.933,344.000 53.600 C 344.000 54.133,344.267 54.400,344.800 54.400 C 345.333 54.400,345.600 54.667,345.600 55.200 C 345.600 55.867,345.867 56.000,347.200 56.000 C 348.533 56.000,348.800 56.133,348.800 56.800 C 348.800 57.333,349.067 57.600,349.600 57.600 C 350.133 57.600,350.400 57.867,350.400 58.400 C 350.400 59.048,350.667 59.200,351.800 59.200 C 352.933 59.200,353.200 59.352,353.200 60.000 C 353.200 60.533,353.467 60.800,354.000 60.800 C 354.533 60.800,354.800 61.067,354.800 61.600 C 354.800 62.267,355.067 62.400,356.400 62.400 C 357.733 62.400,358.000 62.533,358.000 63.200 C 358.000 63.733,358.267 64.000,358.800 64.000 C 359.333 64.000,359.600 64.267,359.600 64.800 C 359.600 65.333,359.867 65.600,360.400 65.600 C 360.933 65.600,361.200 65.867,361.200 66.400 C 361.200 66.933,361.467 67.200,362.000 67.200 C 362.667 67.200,362.800 67.467,362.800 68.800 L 362.800 70.400 358.000 70.400 C 353.467 70.400,353.200 70.444,353.200 71.200 C 353.200 71.944,352.933 72.000,349.400 72.000 C 345.867 72.000,345.600 72.056,345.600 72.800 C 345.600 73.511,345.333 73.600,343.200 73.600 C 341.067 73.600,340.800 73.689,340.800 74.400 C 340.800 75.111,340.533 75.200,338.400 75.200 C 336.267 75.200,336.000 75.289,336.000 76.000 C 336.000 76.711,335.733 76.800,333.600 76.800 C 331.467 76.800,331.200 76.889,331.200 77.600 C 331.200 78.267,330.933 78.400,329.600 78.400 C 328.267 78.400,328.000 78.533,328.000 79.200 C 328.000 79.867,327.733 80.000,326.400 80.000 C 325.067 80.000,324.800 80.133,324.800 80.800 C 324.800 81.467,324.533 81.600,323.200 81.600 C 322.074 81.600,321.600 81.771,321.600 82.176 C 321.600 82.840,319.816 83.072,316.300 82.864 C 314.651 82.767,314.000 82.569,314.000 82.164 C 314.000 81.773,313.511 81.600,312.400 81.600 C 311.067 81.600,310.800 81.467,310.800 80.800 C 310.800 80.267,310.533 80.000,310.000 80.000 C 309.467 80.000,309.200 79.733,309.200 79.200 C 309.200 78.424,308.933 78.400,300.400 78.400 C 291.867 78.400,291.600 78.376,291.600 77.600 C 291.600 76.847,291.333 76.800,287.047 76.800 C 282.830 76.800,282.478 76.741,282.284 76.000 C 282.090 75.258,281.738 75.200,277.437 75.200 C 273.067 75.200,272.800 75.154,272.800 74.400 C 272.800 73.667,272.533 73.600,269.600 73.600 C 266.667 73.600,266.400 73.533,266.400 72.800 C 266.400 72.133,266.133 72.000,264.800 72.000 C 263.467 72.000,263.200 71.867,263.200 71.200 C 263.200 70.533,262.933 70.400,261.600 70.400 C 260.267 70.400,260.000 70.267,260.000 69.600 C 260.000 69.067,259.733 68.800,259.200 68.800 C 258.667 68.800,258.400 68.533,258.400 68.000 C 258.400 67.333,258.133 67.200,256.800 67.200 C 255.467 67.200,255.200 67.333,255.200 68.000 C 255.200 68.533,254.933 68.800,254.400 68.800 C 253.867 68.800,253.600 69.067,253.600 69.600 C 253.600 70.133,253.333 70.400,252.800 70.400 C 252.267 70.400,252.000 70.667,252.000 71.200 C 252.000 71.640,251.742 72.000,251.427 72.000 C 251.112 72.000,250.740 72.360,250.600 72.800 C 250.411 73.395,249.995 73.600,248.973 73.600 C 247.867 73.600,247.600 73.755,247.600 74.400 C 247.600 75.067,247.333 75.200,246.000 75.200 C 244.667 75.200,244.400 75.333,244.400 76.000 C 244.400 76.667,244.133 76.800,242.800 76.800 C 241.467 76.800,241.200 76.933,241.200 77.600 C 241.200 78.267,240.933 78.400,239.600 78.400 C 238.267 78.400,238.000 78.533,238.000 79.200 C 238.000 79.911,237.733 80.000,235.600 80.000 C 233.467 80.000,233.200 80.089,233.200 80.800 C 233.200 81.533,232.933 81.600,230.000 81.600 C 227.422 81.600,226.800 81.717,226.800 82.200 C 226.800 82.693,226.089 82.800,222.800 82.800 C 219.511 82.800,218.800 82.693,218.800 82.200 C 218.800 81.867,218.444 81.600,218.000 81.600 C 217.467 81.600,217.200 81.333,217.200 80.800 C 217.200 80.056,216.933 80.000,213.400 80.000 L 209.600 80.000 209.600 84.600 C 209.600 88.933,209.646 89.200,210.400 89.200 C 211.156 89.200,211.200 89.467,211.200 94.000 C 211.200 98.533,211.156 98.800,210.400 98.800 C 209.617 98.800,209.600 99.067,209.600 111.400 C 209.600 123.733,209.617 124.000,210.400 124.000 C 211.167 124.000,211.200 124.267,211.200 130.400 C 211.200 136.533,211.233 136.800,212.000 136.800 C 212.711 136.800,212.800 137.067,212.800 139.200 C 212.800 141.333,212.889 141.600,213.600 141.600 C 214.267 141.600,214.400 141.867,214.400 143.200 C 214.400 144.533,214.267 144.800,213.600 144.800 C 212.955 144.800,212.800 145.067,212.800 146.173 C 212.800 147.195,212.595 147.611,212.000 147.800 C 211.329 148.013,211.200 148.405,211.200 150.227 C 211.200 152.133,211.298 152.400,212.000 152.400 C 212.533 152.400,212.800 152.667,212.800 153.200 C 212.800 153.733,213.067 154.000,213.600 154.000 C 214.133 154.000,214.400 154.267,214.400 154.800 C 214.400 155.503,214.667 155.600,216.600 155.600 C 218.533 155.600,218.800 155.503,218.800 154.800 C 218.800 154.089,219.067 154.000,221.200 154.000 C 223.333 154.000,223.600 153.911,223.600 153.200 C 223.600 152.489,223.867 152.400,226.000 152.400 C 228.133 152.400,228.400 152.311,228.400 151.600 C 228.400 150.889,228.667 150.800,230.800 150.800 C 232.933 150.800,233.200 150.711,233.200 150.000 C 233.200 149.333,233.467 149.200,234.800 149.200 C 236.133 149.200,236.400 149.067,236.400 148.400 C 236.400 147.733,236.667 147.600,238.000 147.600 C 239.156 147.600,239.600 147.433,239.600 147.000 C 239.600 146.578,240.026 146.400,241.037 146.400 C 242.138 146.400,242.524 146.213,242.684 145.600 C 242.843 144.994,243.230 144.800,244.284 144.800 C 245.338 144.800,245.725 144.606,245.884 144.000 C 246.043 143.394,246.430 143.200,247.484 143.200 C 248.538 143.200,248.925 143.006,249.084 142.400 C 249.241 141.799,249.630 141.600,250.647 141.600 C 251.733 141.600,252.000 141.442,252.000 140.800 C 252.000 140.133,252.267 140.000,253.600 140.000 C 254.933 140.000,255.200 139.867,255.200 139.200 C 255.200 138.533,255.467 138.400,256.800 138.400 C 258.133 138.400,258.400 138.267,258.400 137.600 C 258.400 137.067,258.667 136.800,259.200 136.800 C 259.733 136.800,260.000 136.533,260.000 136.000 C 260.000 135.333,260.267 135.200,261.600 135.200 C 262.933 135.200,263.200 135.067,263.200 134.400 C 263.200 133.733,263.467 133.600,264.800 133.600 C 266.133 133.600,266.400 133.467,266.400 132.800 C 266.400 132.267,266.667 132.000,267.200 132.000 C 267.733 132.000,268.000 131.733,268.000 131.200 C 268.000 130.533,268.267 130.400,269.600 130.400 C 270.933 130.400,271.200 130.267,271.200 129.600 C 271.200 129.067,271.467 128.800,272.000 128.800 C 272.533 128.800,272.800 128.533,272.800 128.000 C 272.800 127.333,273.067 127.200,274.400 127.200 C 275.733 127.200,276.000 127.067,276.000 126.400 C 276.000 125.867,276.267 125.600,276.800 125.600 C 277.333 125.600,277.600 125.333,277.600 124.800 C 277.600 124.133,277.867 124.000,279.200 124.000 C 280.533 124.000,280.800 123.867,280.800 123.200 C 280.800 122.735,281.067 122.400,281.437 122.400 C 281.788 122.400,282.169 122.040,282.284 121.600 C 282.441 120.999,282.830 120.800,283.847 120.800 C 284.933 120.800,285.200 120.642,285.200 120.000 C 285.200 119.467,285.467 119.200,286.000 119.200 C 286.533 119.200,286.800 118.933,286.800 118.400 C 286.800 117.867,287.067 117.600,287.600 117.600 C 288.133 117.600,288.400 117.333,288.400 116.800 C 288.400 116.267,288.667 116.000,289.200 116.000 C 289.733 116.000,290.000 115.733,290.000 115.200 C 290.000 114.533,290.267 114.400,291.600 114.400 C 292.756 114.400,293.200 114.233,293.200 113.800 C 293.200 113.467,293.556 113.200,294.000 113.200 C 294.533 113.200,294.800 112.933,294.800 112.400 C 294.800 111.867,295.067 111.600,295.600 111.600 C 296.133 111.600,296.400 111.333,296.400 110.800 C 296.400 110.133,296.667 110.000,298.000 110.000 C 299.333 110.000,299.600 109.867,299.600 109.200 C 299.600 108.667,299.867 108.400,300.400 108.400 C 300.933 108.400,301.200 108.133,301.200 107.600 C 301.200 106.933,301.467 106.800,302.800 106.800 C 304.133 106.800,304.400 106.667,304.400 106.000 C 304.400 105.467,304.667 105.200,305.200 105.200 C 305.733 105.200,306.000 104.933,306.000 104.400 C 306.000 103.733,306.267 103.600,307.600 103.600 C 308.933 103.600,309.200 103.467,309.200 102.800 C 309.200 102.267,309.467 102.000,310.000 102.000 C 310.533 102.000,310.800 101.733,310.800 101.200 C 310.800 100.533,311.067 100.400,312.400 100.400 C 313.733 100.400,314.000 100.267,314.000 99.600 C 314.000 99.135,314.267 98.800,314.637 98.800 C 314.988 98.800,315.369 98.440,315.484 98.000 C 315.641 97.399,316.030 97.200,317.047 97.200 C 318.133 97.200,318.400 97.042,318.400 96.400 C 318.400 95.733,318.667 95.600,320.000 95.600 C 321.333 95.600,321.600 95.467,321.600 94.800 C 321.600 94.133,321.867 94.000,323.200 94.000 C 324.533 94.000,324.800 93.867,324.800 93.200 C 324.800 92.667,325.067 92.400,325.600 92.400 C 326.133 92.400,326.400 92.133,326.400 91.600 C 326.400 90.889,326.667 90.800,328.800 90.800 C 330.933 90.800,331.200 90.711,331.200 90.000 C 331.200 89.333,331.467 89.200,332.800 89.200 C 334.133 89.200,334.400 89.067,334.400 88.400 C 334.400 87.733,334.667 87.600,336.000 87.600 C 337.333 87.600,337.600 87.467,337.600 86.800 C 337.600 86.089,337.867 86.000,340.000 86.000 C 342.133 86.000,342.400 85.911,342.400 85.200 C 342.400 84.533,342.667 84.400,344.000 84.400 C 345.333 84.400,345.600 84.267,345.600 83.600 C 345.600 82.856,345.867 82.800,349.400 82.800 C 352.511 82.800,353.200 82.691,353.200 82.200 C 353.200 81.683,354.533 81.600,362.800 81.600 C 371.067 81.600,372.400 81.683,372.400 82.200 C 372.400 82.633,372.844 82.800,374.000 82.800 C 375.333 82.800,375.600 82.933,375.600 83.600 C 375.600 84.133,375.867 84.400,376.400 84.400 C 376.933 84.400,377.200 84.667,377.200 85.200 C 377.200 85.733,377.467 86.000,378.000 86.000 C 378.533 86.000,378.800 86.267,378.800 86.800 C 378.800 87.333,379.067 87.600,379.600 87.600 C 380.133 87.600,380.400 87.867,380.400 88.400 C 380.400 88.933,380.667 89.200,381.200 89.200 C 381.962 89.200,382.000 89.467,382.000 94.800 C 382.000 100.133,381.962 100.400,381.200 100.400 C 380.533 100.400,380.400 100.667,380.400 102.000 C 380.400 103.333,380.267 103.600,379.600 103.600 C 379.067 103.600,378.800 103.867,378.800 104.400 C 378.800 104.933,378.533 105.200,378.000 105.200 C 377.333 105.200,377.200 105.467,377.200 106.800 C 377.200 108.133,377.067 108.400,376.400 108.400 C 375.867 108.400,375.600 108.667,375.600 109.200 C 375.600 109.733,375.333 110.000,374.800 110.000 C 374.267 110.000,374.000 110.267,374.000 110.800 C 374.000 111.333,373.733 111.600,373.200 111.600 C 372.533 111.600,372.400 111.867,372.400 113.200 C 372.400 114.533,372.267 114.800,371.600 114.800 C 371.160 114.800,370.800 115.049,370.800 115.353 C 370.800 115.658,370.440 116.001,370.000 116.116 C 369.560 116.231,369.200 116.612,369.200 116.963 C 369.200 117.333,368.865 117.600,368.400 117.600 C 367.867 117.600,367.600 117.867,367.600 118.400 C 367.600 118.933,367.333 119.200,366.800 119.200 C 366.267 119.200,366.000 119.467,366.000 120.000 C 366.000 120.533,365.733 120.800,365.200 120.800 C 364.667 120.800,364.400 121.067,364.400 121.600 C 364.400 122.133,364.133 122.400,363.600 122.400 C 363.067 122.400,362.800 122.667,362.800 123.200 C 362.800 123.733,362.533 124.000,362.000 124.000 C 361.467 124.000,361.200 124.267,361.200 124.800 C 361.200 125.333,360.933 125.600,360.400 125.600 C 359.867 125.600,359.600 125.867,359.600 126.400 C 359.600 126.933,359.333 127.200,358.800 127.200 C 358.267 127.200,358.000 127.467,358.000 128.000 C 358.000 128.533,357.733 128.800,357.200 128.800 C 356.667 128.800,356.400 129.067,356.400 129.600 C 356.400 130.133,356.133 130.400,355.600 130.400 C 355.067 130.400,354.800 130.667,354.800 131.200 C 354.800 131.733,354.533 132.000,354.000 132.000 C 353.467 132.000,353.200 132.267,353.200 132.800 C 353.200 133.265,352.933 133.600,352.563 133.600 C 352.212 133.600,351.831 133.960,351.716 134.400 C 351.601 134.840,351.258 135.200,350.953 135.200 C 350.649 135.200,350.400 135.560,350.400 136.000 C 350.400 136.533,350.133 136.800,349.600 136.800 C 349.067 136.800,348.800 137.067,348.800 137.600 C 348.800 138.133,348.533 138.400,348.000 138.400 C 347.467 138.400,347.200 138.667,347.200 139.200 C 347.200 139.733,346.933 140.000,346.400 140.000 C 345.867 140.000,345.600 140.267,345.600 140.800 C 345.600 141.333,345.333 141.600,344.800 141.600 C 344.267 141.600,344.000 141.867,344.000 142.400 C 344.000 142.933,343.733 143.200,343.200 143.200 C 342.667 143.200,342.400 143.467,342.400 144.000 C 342.400 144.533,342.133 144.800,341.600 144.800 C 341.067 144.800,340.800 145.067,340.800 145.600 C 340.800 146.133,340.533 146.400,340.000 146.400 C 339.560 146.400,339.200 146.658,339.200 146.973 C 339.200 147.288,338.840 147.660,338.400 147.800 C 337.960 147.940,337.600 148.312,337.600 148.627 C 337.600 148.942,337.240 149.200,336.800 149.200 C 336.267 149.200,336.000 149.467,336.000 150.000 C 336.000 150.533,335.733 150.800,335.200 150.800 C 334.667 150.800,334.400 151.067,334.400 151.600 C 334.400 152.267,334.133 152.400,332.800 152.400 C 331.467 152.400,331.200 152.533,331.200 153.200 C 331.200 153.733,330.933 154.000,330.400 154.000 C 329.867 154.000,329.600 154.267,329.600 154.800 C 329.600 155.333,329.333 155.600,328.800 155.600 C 328.267 155.600,328.000 155.867,328.000 156.400 C 328.000 156.933,327.733 157.200,327.200 157.200 C 326.667 157.200,326.400 157.467,326.400 158.000 C 326.400 158.533,326.133 158.800,325.600 158.800 C 325.067 158.800,324.800 159.067,324.800 159.600 C 324.800 160.133,324.533 160.400,324.000 160.400 C 323.467 160.400,323.200 160.667,323.200 161.200 C 323.200 161.733,322.933 162.000,322.400 162.000 C 321.867 162.000,321.600 162.267,321.600 162.800 C 321.600 163.467,321.333 163.600,320.000 163.600 C 318.667 163.600,318.400 163.733,318.400 164.400 C 318.400 164.840,318.142 165.200,317.827 165.200 C 317.512 165.200,317.140 165.560,317.000 166.000 C 316.860 166.440,316.488 166.800,316.173 166.800 C 315.858 166.800,315.600 167.160,315.600 167.600 C 315.600 168.133,315.333 168.400,314.800 168.400 C 314.267 168.400,314.000 168.667,314.000 169.200 C 314.000 169.733,313.733 170.000,313.200 170.000 C 312.667 170.000,312.400 170.267,312.400 170.800 C 312.400 171.333,312.133 171.600,311.600 171.600 C 311.067 171.600,310.800 171.867,310.800 172.400 C 310.800 172.933,310.533 173.200,310.000 173.200 C 309.467 173.200,309.200 173.467,309.200 174.000 C 309.200 174.533,308.933 174.800,308.400 174.800 C 307.867 174.800,307.600 175.067,307.600 175.600 C 307.600 176.267,307.333 176.400,306.000 176.400 C 304.667 176.400,304.400 176.533,304.400 177.200 C 304.400 177.733,304.133 178.000,303.600 178.000 C 303.067 178.000,302.800 178.267,302.800 178.800 C 302.800 179.333,302.533 179.600,302.000 179.600 C 301.556 179.600,301.200 179.867,301.200 180.200 C 301.200 180.622,300.774 180.800,299.763 180.800 C 298.662 180.800,298.276 180.987,298.116 181.600 C 298.000 182.043,297.570 182.400,297.153 182.400 C 296.667 182.400,296.400 182.683,296.400 183.200 C 296.400 183.733,296.133 184.000,295.600 184.000 C 295.067 184.000,294.800 184.267,294.800 184.800 C 294.800 185.333,294.533 185.600,294.000 185.600 C 293.467 185.600,293.200 185.867,293.200 186.400 C 293.200 186.933,292.933 187.200,292.400 187.200 C 291.867 187.200,291.600 187.467,291.600 188.000 C 291.600 188.533,291.333 188.800,290.800 188.800 C 290.267 188.800,290.000 189.067,290.000 189.600 C 290.000 190.133,289.733 190.400,289.200 190.400 C 288.667 190.400,288.400 190.667,288.400 191.200 C 288.400 191.733,288.133 192.000,287.600 192.000 C 287.083 192.000,286.800 192.267,286.800 192.753 C 286.800 193.170,286.443 193.600,286.000 193.716 C 285.387 193.876,285.200 194.262,285.200 195.363 C 285.200 196.344,285.018 196.800,284.627 196.800 C 284.312 196.800,283.940 197.160,283.800 197.600 C 283.660 198.040,283.288 198.400,282.973 198.400 C 282.658 198.400,282.400 198.760,282.400 199.200 C 282.400 199.733,282.133 200.000,281.600 200.000 C 281.067 200.000,280.800 200.267,280.800 200.800 C 280.800 201.333,280.533 201.600,280.000 201.600 C 279.333 201.600,279.200 201.867,279.200 203.200 C 279.200 204.533,279.067 204.800,278.400 204.800 C 277.867 204.800,277.600 205.067,277.600 205.600 C 277.600 206.133,277.333 206.400,276.800 206.400 C 276.133 206.400,276.000 206.667,276.000 208.000 C 276.000 209.333,275.867 209.600,275.200 209.600 C 274.667 209.600,274.400 209.867,274.400 210.400 C 274.400 210.933,274.133 211.200,273.600 211.200 C 272.952 211.200,272.800 211.467,272.800 212.600 C 272.800 213.733,272.648 214.000,272.000 214.000 C 271.333 214.000,271.200 214.267,271.200 215.600 C 271.200 216.933,271.067 217.200,270.400 217.200 C 269.867 217.200,269.600 217.467,269.600 218.000 C 269.600 218.533,269.333 218.800,268.800 218.800 C 268.133 218.800,268.000 219.067,268.000 220.400 C 268.000 221.733,267.867 222.000,267.200 222.000 C 266.533 222.000,266.400 222.267,266.400 223.600 C 266.400 224.933,266.267 225.200,265.600 225.200 C 264.933 225.200,264.800 225.467,264.800 226.800 C 264.800 228.133,264.667 228.400,264.000 228.400 C 263.333 228.400,263.200 228.667,263.200 230.000 C 263.200 231.333,263.067 231.600,262.400 231.600 C 261.733 231.600,261.600 231.867,261.600 233.200 C 261.600 234.533,261.467 234.800,260.800 234.800 C 260.133 234.800,260.000 235.067,260.000 236.400 C 260.000 237.733,259.867 238.000,259.200 238.000 C 258.489 238.000,258.400 238.267,258.400 240.400 C 258.400 242.533,258.311 242.800,257.600 242.800 C 256.933 242.800,256.800 243.067,256.800 244.400 C 256.800 245.733,256.667 246.000,256.000 246.000 C 255.299 246.000,255.200 246.267,255.200 248.153 C 255.200 249.970,255.075 250.339,254.400 250.516 C 253.723 250.693,253.600 251.062,253.600 252.916 C 253.600 254.770,253.477 255.139,252.800 255.316 C 252.187 255.476,252.000 255.862,252.000 256.963 C 252.000 257.925,251.816 258.400,251.443 258.400 C 250.704 258.400,250.400 259.286,250.400 261.433 C 250.400 262.737,250.243 263.200,249.800 263.200 C 249.467 263.200,249.200 263.556,249.200 264.000 C 249.200 264.533,248.933 264.800,248.400 264.800 C 247.733 264.800,247.600 265.067,247.600 266.400 C 247.600 267.733,247.467 268.000,246.800 268.000 C 246.089 268.000,246.000 268.267,246.000 270.400 C 246.000 272.533,245.911 272.800,245.200 272.800 C 244.533 272.800,244.400 273.067,244.400 274.400 C 244.400 275.733,244.267 276.000,243.600 276.000 C 242.955 276.000,242.800 276.267,242.800 277.373 C 242.800 278.395,242.595 278.811,242.000 279.000 C 241.405 279.189,241.200 279.605,241.200 280.627 C 241.200 281.733,241.045 282.000,240.400 282.000 C 239.689 282.000,239.600 282.267,239.600 284.400 C 239.600 286.533,239.511 286.800,238.800 286.800 C 238.133 286.800,238.000 287.067,238.000 288.400 C 238.000 289.733,237.867 290.000,237.200 290.000 C 236.667 290.000,236.400 290.267,236.400 290.800 C 236.400 291.467,236.133 291.600,234.800 291.600 L 233.200 291.600 233.200 293.200 C 233.200 294.533,233.067 294.800,232.400 294.800 C 231.867 294.800,231.600 295.067,231.600 295.600 C 231.600 296.133,231.333 296.400,230.800 296.400 C 230.133 296.400,230.000 296.667,230.000 298.000 C 230.000 299.333,229.867 299.600,229.200 299.600 C 228.533 299.600,228.400 299.867,228.400 301.200 C 228.400 302.533,228.267 302.800,227.600 302.800 C 227.067 302.800,226.800 303.067,226.800 303.600 C 226.800 304.267,226.533 304.400,225.200 304.400 C 223.867 304.400,223.600 304.533,223.600 305.200 C 223.600 305.733,223.333 306.000,222.800 306.000 C 222.133 306.000,222.000 306.267,222.000 307.600 C 222.000 308.933,221.867 309.200,221.200 309.200 C 220.667 309.200,220.400 309.467,220.400 310.000 C 220.400 310.533,220.133 310.800,219.600 310.800 C 219.156 310.800,218.800 311.067,218.800 311.400 C 218.800 311.730,218.549 312.000,218.243 312.000 C 217.598 312.000,217.200 312.852,217.200 314.233 C 217.200 314.826,216.968 315.200,216.600 315.200 C 216.267 315.200,216.000 315.556,216.000 316.000 C 216.000 316.533,215.733 316.800,215.200 316.800 C 214.533 316.800,214.400 317.067,214.400 318.400 C 214.400 319.733,214.267 320.000,213.600 320.000 C 213.067 320.000,212.800 320.267,212.800 320.800 C 212.800 321.333,212.533 321.600,212.000 321.600 C 211.467 321.600,211.200 321.867,211.200 322.400 C 211.200 322.933,210.933 323.200,210.400 323.200 C 209.867 323.200,209.600 323.467,209.600 324.000 C 209.600 324.667,209.333 324.800,208.000 324.800 L 206.400 324.800 206.400 326.400 C 206.400 327.733,206.267 328.000,205.600 328.000 C 204.933 328.000,204.800 328.267,204.800 329.600 C 204.800 330.933,204.667 331.200,204.000 331.200 C 203.467 331.200,203.200 331.467,203.200 332.000 C 203.200 332.533,202.933 332.800,202.400 332.800 C 201.867 332.800,201.600 333.067,201.600 333.600 C 201.600 334.133,201.333 334.400,200.800 334.400 C 200.267 334.400,200.000 334.667,200.000 335.200 C 200.000 335.733,199.733 336.000,199.200 336.000 C 198.667 336.000,198.400 336.267,198.400 336.800 C 198.400 337.333,198.133 337.600,197.600 337.600 C 197.067 337.600,196.800 337.867,196.800 338.400 C 196.800 338.933,196.533 339.200,196.000 339.200 C 195.467 339.200,195.200 339.467,195.200 340.000 C 195.200 340.533,194.933 340.800,194.400 340.800 C 193.867 340.800,193.600 341.067,193.600 341.600 C 193.600 342.267,193.333 342.400,192.000 342.400 C 190.667 342.400,190.400 342.533,190.400 343.200 C 190.400 343.867,190.133 344.000,188.800 344.000 C 187.704 344.000,187.200 344.174,187.200 344.553 C 187.200 344.858,186.840 345.201,186.400 345.316 C 185.960 345.431,185.600 345.791,185.600 346.116 C 185.600 346.441,185.240 346.801,184.800 346.916 C 184.360 347.031,184.000 347.412,184.000 347.763 C 184.000 348.113,183.730 348.400,183.400 348.400 C 183.067 348.400,182.800 348.756,182.800 349.200 C 182.800 349.867,182.533 350.000,181.200 350.000 C 179.867 350.000,179.600 350.133,179.600 350.800 C 179.600 351.333,179.333 351.600,178.800 351.600 C 178.267 351.600,178.000 351.867,178.000 352.400 C 178.000 352.933,177.733 353.200,177.200 353.200 C 176.667 353.200,176.400 353.467,176.400 354.000 C 176.400 354.533,176.133 354.800,175.600 354.800 C 175.067 354.800,174.800 355.067,174.800 355.600 C 174.800 356.133,174.533 356.400,174.000 356.400 C 173.467 356.400,173.200 356.667,173.200 357.200 C 173.200 357.867,172.933 358.000,171.600 358.000 C 170.267 358.000,170.000 358.133,170.000 358.800 C 170.000 359.573,169.733 359.600,162.000 359.600 C 154.267 359.600,154.000 359.573,154.000 358.800 C 154.000 358.072,153.733 358.000,151.047 358.000 C 148.430 358.000,148.069 357.909,147.884 357.200 C 147.724 356.587,147.338 356.400,146.237 356.400 C 145.067 356.400,144.800 356.252,144.800 355.600 C 144.800 354.933,144.533 354.800,143.200 354.800 C 141.867 354.800,141.600 354.667,141.600 354.000 C 141.600 353.333,141.333 353.200,140.000 353.200 C 138.667 353.200,138.400 353.067,138.400 352.400 C 138.400 351.733,138.133 351.600,136.800 351.600 C 135.467 351.600,135.200 351.467,135.200 350.800 C 135.200 350.133,134.933 350.000,133.600 350.000 C 132.267 350.000,132.000 349.867,132.000 349.200 C 132.000 348.533,131.733 348.400,130.400 348.400 C 129.067 348.400,128.800 348.267,128.800 347.600 C 128.800 347.067,128.533 346.800,128.000 346.800 C 127.467 346.800,127.200 346.533,127.200 346.000 C 127.200 345.467,126.933 345.200,126.400 345.200 C 125.956 345.200,125.600 344.933,125.600 344.600 C 125.600 344.167,125.156 344.000,124.000 344.000 C 122.667 344.000,122.400 343.867,122.400 343.200 C 122.400 342.667,122.133 342.400,121.600 342.400 C 121.067 342.400,120.800 342.133,120.800 341.600 C 120.800 341.067,120.533 340.800,120.000 340.800 C 119.467 340.800,119.200 340.533,119.200 340.000 C 119.200 339.467,118.933 339.200,118.400 339.200 C 117.867 339.200,117.600 338.933,117.600 338.400 C 117.600 337.960,117.342 337.600,117.027 337.600 C 116.712 337.600,116.340 337.240,116.200 336.800 C 116.011 336.205,115.595 336.000,114.573 336.000 C 113.467 336.000,113.200 335.845,113.200 335.200 C 113.200 334.667,112.933 334.400,112.400 334.400 C 111.867 334.400,111.600 334.133,111.600 333.600 C 111.600 333.067,111.333 332.800,110.800 332.800 C 110.267 332.800,110.000 332.533,110.000 332.000 C 110.000 331.467,109.733 331.200,109.200 331.200 C 108.667 331.200,108.400 330.933,108.400 330.400 C 108.400 329.867,108.133 329.600,107.600 329.600 C 107.067 329.600,106.800 329.333,106.800 328.800 C 106.800 328.267,106.533 328.000,106.000 328.000 C 105.467 328.000,105.200 327.733,105.200 327.200 C 105.200 326.667,104.933 326.400,104.400 326.400 C 103.867 326.400,103.600 326.133,103.600 325.600 C 103.600 325.067,103.333 324.800,102.800 324.800 C 102.267 324.800,102.000 324.533,102.000 324.000 C 102.000 323.467,101.733 323.200,101.200 323.200 C 100.667 323.200,100.400 322.933,100.400 322.400 C 100.400 321.867,100.133 321.600,99.600 321.600 C 98.889 321.600,98.800 321.333,98.800 319.200 C 98.800 317.067,98.711 316.800,98.000 316.800 C 97.271 316.800,97.200 316.533,97.200 313.800 C 97.200 311.067,97.129 310.800,96.400 310.800 C 95.733 310.800,95.600 310.533,95.600 309.200 C 95.600 307.867,95.467 307.600,94.800 307.600 C 94.067 307.600,94.000 307.333,94.000 304.400 C 94.000 301.467,93.933 301.200,93.200 301.200 C 92.467 301.200,92.400 300.933,92.400 298.000 C 92.400 295.067,92.333 294.800,91.600 294.800 C 90.867 294.800,90.800 294.533,90.800 291.600 C 90.800 288.667,90.733 288.400,90.000 288.400 C 89.267 288.400,89.200 288.133,89.200 285.200 C 89.200 282.267,89.133 282.000,88.400 282.000 C 87.671 282.000,87.600 281.733,87.600 279.000 C 87.600 276.267,87.529 276.000,86.800 276.000 C 86.133 276.000,86.000 275.733,86.000 274.400 C 86.000 273.067,85.867 272.800,85.200 272.800 C 84.467 272.800,84.400 272.533,84.400 269.600 C 84.400 267.022,84.283 266.400,83.800 266.400 C 83.432 266.400,83.200 266.026,83.200 265.433 C 83.200 264.052,82.802 263.200,82.157 263.200 C 81.747 263.200,81.600 262.608,81.600 260.963 C 81.600 259.062,81.480 258.694,80.800 258.516 C 80.173 258.352,80.000 257.970,80.000 256.753 C 80.000 255.467,79.863 255.200,79.200 255.200 C 78.470 255.200,78.400 254.933,78.400 252.163 C 78.400 249.462,78.311 249.102,77.600 248.916 C 76.999 248.759,76.800 248.370,76.800 247.353 C 76.800 246.267,76.642 246.000,76.000 246.000 C 75.333 246.000,75.200 245.733,75.200 244.400 C 75.200 243.067,75.067 242.800,74.400 242.800 C 73.733 242.800,73.600 242.533,73.600 241.200 C 73.600 239.867,73.467 239.600,72.800 239.600 C 72.133 239.600,72.000 239.333,72.000 238.000 C 72.000 236.667,71.867 236.400,71.200 236.400 C 70.533 236.400,70.400 236.133,70.400 234.800 C 70.400 233.467,70.267 233.200,69.600 233.200 C 68.933 233.200,68.800 232.933,68.800 231.600 C 68.800 230.267,68.667 230.000,68.000 230.000 C 67.333 230.000,67.200 229.733,67.200 228.400 C 67.200 227.067,67.067 226.800,66.400 226.800 C 65.667 226.800,65.600 226.533,65.600 223.600 C 65.600 220.667,65.533 220.400,64.800 220.400 C 64.089 220.400,64.000 220.133,64.000 218.000 C 64.000 215.867,63.911 215.600,63.200 215.600 C 62.471 215.600,62.400 215.333,62.400 212.600 C 62.400 209.867,62.329 209.600,61.600 209.600 C 60.819 209.600,60.800 209.333,60.800 198.400 C 60.800 187.467,60.819 187.200,61.600 187.200 C 62.343 187.200,62.400 186.933,62.400 183.427 C 62.400 180.005,62.474 179.630,63.200 179.400 C 63.905 179.176,64.000 178.795,64.000 176.173 C 64.000 173.467,64.072 173.200,64.800 173.200 C 65.533 173.200,65.600 172.933,65.600 170.000 C 65.600 167.067,65.667 166.800,66.400 166.800 C 67.111 166.800,67.200 166.533,67.200 164.400 C 67.200 162.267,67.289 162.000,68.000 162.000 C 68.733 162.000,68.800 161.733,68.800 158.800 C 68.800 155.867,68.867 155.600,69.600 155.600 C 70.333 155.600,70.400 155.333,70.400 152.400 C 70.400 149.467,70.467 149.200,71.200 149.200 C 71.929 149.200,72.000 148.933,72.000 146.200 C 72.000 143.467,72.071 143.200,72.800 143.200 C 73.533 143.200,73.600 142.933,73.600 140.000 C 73.600 137.067,73.667 136.800,74.400 136.800 C 75.133 136.800,75.200 136.533,75.200 133.600 C 75.200 130.667,75.267 130.400,76.000 130.400 C 76.733 130.400,76.800 130.133,76.800 127.200 C 76.800 124.267,76.867 124.000,77.600 124.000 C 78.333 124.000,78.400 123.733,78.400 120.800 C 78.400 117.867,78.467 117.600,79.200 117.600 C 79.928 117.600,80.000 117.333,80.000 114.647 C 80.000 112.030,80.091 111.669,80.800 111.484 C 81.511 111.298,81.600 110.938,81.600 108.237 C 81.600 105.908,81.730 105.200,82.157 105.200 C 82.992 105.200,83.200 104.276,83.200 100.567 C 83.200 97.841,83.314 97.200,83.800 97.200 C 84.308 97.200,84.400 96.222,84.400 90.800 C 84.400 84.667,84.433 84.400,85.200 84.400 C 85.929 84.400,86.000 84.133,86.000 81.400 C 86.000 78.667,86.071 78.400,86.800 78.400 C 87.511 78.400,87.600 78.133,87.600 76.000 C 87.600 73.867,87.689 73.600,88.400 73.600 C 89.067 73.600,89.200 73.333,89.200 72.000 C 89.200 70.667,89.333 70.400,90.000 70.400 C 90.667 70.400,90.800 70.133,90.800 68.800 C 90.800 67.467,90.933 67.200,91.600 67.200 C 92.267 67.200,92.400 66.933,92.400 65.600 C 92.400 64.267,92.533 64.000,93.200 64.000 C 93.733 64.000,94.000 63.733,94.000 63.200 C 94.000 62.667,94.267 62.400,94.800 62.400 C 95.467 62.400,95.600 62.133,95.600 60.800 C 95.600 59.467,95.733 59.200,96.400 59.200 C 96.933 59.200,97.200 58.933,97.200 58.400 C 97.200 57.867,97.467 57.600,98.000 57.600 C 98.533 57.600,98.800 57.333,98.800 56.800 C 98.800 56.267,99.067 56.000,99.600 56.000 C 100.133 56.000,100.400 55.733,100.400 55.200 C 100.400 54.533,100.667 54.400,102.000 54.400 C 103.333 54.400,103.600 54.267,103.600 53.600 C 103.600 53.067,103.867 52.800,104.400 52.800 C 104.933 52.800,105.200 52.533,105.200 52.000 C 105.200 51.289,105.467 51.200,107.600 51.200 C 109.733 51.200,110.000 51.111,110.000 50.400 C 110.000 49.671,110.267 49.600,113.013 49.600 C 115.321 49.600,116.079 49.460,116.255 49.000 C 116.430 48.546,117.165 48.400,119.280 48.400 C 121.738 48.400,122.100 48.304,122.284 47.600 C 122.471 46.885,122.830 46.800,125.647 46.800 C 128.533 46.800,128.800 46.732,128.800 46.000 C 128.800 45.267,129.067 45.200,132.000 45.200 C 134.933 45.200,135.200 45.133,135.200 44.400 C 135.200 43.667,135.467 43.600,138.400 43.600 C 141.333 43.600,141.600 43.533,141.600 42.800 C 141.600 42.095,141.867 42.000,143.837 42.000 C 145.738 42.000,146.106 41.880,146.284 41.200 C 146.461 40.525,146.830 40.400,148.647 40.400 C 150.533 40.400,150.800 40.301,150.800 39.600 C 150.800 38.867,151.067 38.800,154.000 38.800 C 156.933 38.800,157.200 38.733,157.200 38.000 C 157.200 37.333,157.467 37.200,158.800 37.200 C 160.133 37.200,160.400 37.067,160.400 36.400 C 160.400 35.689,160.667 35.600,162.800 35.600 C 164.933 35.600,165.200 35.511,165.200 34.800 C 165.200 34.089,165.467 34.000,167.600 34.000 C 169.733 34.000,170.000 33.911,170.000 33.200 C 170.000 32.489,170.267 32.400,172.400 32.400 C 174.533 32.400,174.800 32.311,174.800 31.600 C 174.800 30.889,175.067 30.800,177.200 30.800 C 179.333 30.800,179.600 30.711,179.600 30.000 C 179.600 29.355,179.867 29.200,180.973 29.200 C 181.995 29.200,182.411 28.995,182.600 28.400 C 182.813 27.729,183.205 27.600,185.027 27.600 C 186.933 27.600,187.200 27.502,187.200 26.800 C 187.200 26.133,187.467 26.000,188.800 26.000 C 190.133 26.000,190.400 25.867,190.400 25.200 C 190.400 24.489,190.667 24.400,192.800 24.400 C 194.933 24.400,195.200 24.311,195.200 23.600 C 195.200 22.867,195.467 22.800,198.400 22.800 C 201.333 22.800,201.600 22.733,201.600 22.000 C 201.600 21.267,201.867 21.200,204.800 21.200 C 207.733 21.200,208.000 21.133,208.000 20.400 C 208.000 19.656,208.267 19.600,211.837 19.600 C 215.338 19.600,215.693 19.530,215.884 18.800 C 216.075 18.072,216.430 18.000,219.847 18.000 C 223.333 18.000,223.600 17.943,223.600 17.200 C 223.600 16.427,223.867 16.400,231.600 16.400 C 238.444 16.400,239.600 16.313,239.600 15.800 C 239.600 15.300,240.400 15.200,244.400 15.200 C 248.400 15.200,249.200 15.300,249.200 15.800 M261.600 82.200 C 261.600 82.683,262.222 82.800,264.800 82.800 C 267.733 82.800,268.000 82.867,268.000 83.600 C 268.000 84.311,268.267 84.400,270.400 84.400 C 272.533 84.400,272.800 84.489,272.800 85.200 C 272.800 85.947,273.067 86.000,276.800 86.000 C 280.533 86.000,280.800 86.053,280.800 86.800 C 280.800 87.566,281.067 87.600,287.000 87.600 C 292.933 87.600,293.200 87.634,293.200 88.400 C 293.200 89.167,293.467 89.200,299.600 89.200 C 305.733 89.200,306.000 89.233,306.000 90.000 C 306.000 90.533,305.733 90.800,305.200 90.800 C 304.667 90.800,304.400 91.067,304.400 91.600 C 304.400 92.133,304.133 92.400,303.600 92.400 C 303.067 92.400,302.800 92.667,302.800 93.200 C 302.800 93.867,302.533 94.000,301.200 94.000 C 299.867 94.000,299.600 94.133,299.600 94.800 C 299.600 95.333,299.333 95.600,298.800 95.600 C 298.267 95.600,298.000 95.867,298.000 96.400 C 298.000 97.067,297.733 97.200,296.400 97.200 C 295.067 97.200,294.800 97.333,294.800 98.000 C 294.800 98.533,294.533 98.800,294.000 98.800 C 293.467 98.800,293.200 99.067,293.200 99.600 C 293.200 100.267,292.933 100.400,291.600 100.400 C 290.267 100.400,290.000 100.533,290.000 101.200 C 290.000 101.733,289.733 102.000,289.200 102.000 C 288.667 102.000,288.400 102.267,288.400 102.800 C 288.400 103.333,288.133 103.600,287.600 103.600 C 287.067 103.600,286.800 103.867,286.800 104.400 C 286.800 105.045,286.533 105.200,285.427 105.200 C 284.405 105.200,283.989 105.405,283.800 106.000 C 283.660 106.440,283.288 106.800,282.973 106.800 C 282.658 106.800,282.400 107.160,282.400 107.600 C 282.400 108.347,282.133 108.400,278.400 108.400 C 274.667 108.400,274.400 108.347,274.400 107.600 C 274.400 106.853,274.133 106.800,270.400 106.800 C 266.667 106.800,266.400 106.747,266.400 106.000 C 266.400 105.333,266.133 105.200,264.800 105.200 C 263.467 105.200,263.200 105.067,263.200 104.400 C 263.200 103.689,262.933 103.600,260.800 103.600 C 258.667 103.600,258.400 103.511,258.400 102.800 C 258.400 102.133,258.133 102.000,256.800 102.000 C 255.467 102.000,255.200 102.133,255.200 102.800 C 255.200 103.467,254.933 103.600,253.600 103.600 C 252.267 103.600,252.000 103.733,252.000 104.400 C 252.000 105.048,251.733 105.200,250.600 105.200 C 249.467 105.200,249.200 105.352,249.200 106.000 C 249.200 106.667,248.933 106.800,247.600 106.800 C 246.267 106.800,246.000 106.933,246.000 107.600 C 246.000 108.267,245.733 108.400,244.400 108.400 C 243.067 108.400,242.800 108.533,242.800 109.200 C 242.800 109.911,242.533 110.000,240.400 110.000 C 238.267 110.000,238.000 110.089,238.000 110.800 C 238.000 111.562,237.733 111.600,232.400 111.600 C 227.067 111.600,226.800 111.638,226.800 112.400 C 226.800 113.133,226.533 113.200,223.600 113.200 C 220.667 113.200,220.400 113.267,220.400 114.000 C 220.400 114.533,220.133 114.800,219.600 114.800 C 218.889 114.800,218.800 114.533,218.800 112.400 C 218.800 110.267,218.889 110.000,219.600 110.000 C 220.370 110.000,220.400 109.733,220.400 102.800 C 220.400 95.867,220.430 95.600,221.200 95.600 C 221.733 95.600,222.000 95.333,222.000 94.800 C 222.000 94.089,222.267 94.000,224.400 94.000 C 226.533 94.000,226.800 93.911,226.800 93.200 C 226.800 92.467,227.067 92.400,230.000 92.400 C 232.933 92.400,233.200 92.333,233.200 91.600 C 233.200 90.867,233.467 90.800,236.400 90.800 C 239.333 90.800,239.600 90.733,239.600 90.000 C 239.600 89.289,239.867 89.200,242.000 89.200 C 244.133 89.200,244.400 89.111,244.400 88.400 C 244.400 87.733,244.667 87.600,246.000 87.600 C 247.333 87.600,247.600 87.467,247.600 86.800 C 247.600 86.097,247.867 86.000,249.800 86.000 C 251.733 86.000,252.000 85.903,252.000 85.200 C 252.000 84.667,252.267 84.400,252.800 84.400 C 253.333 84.400,253.600 84.133,253.600 83.600 C 253.600 82.933,253.867 82.800,255.200 82.800 C 256.356 82.800,256.800 82.633,256.800 82.200 C 256.800 81.733,257.333 81.600,259.200 81.600 C 261.067 81.600,261.600 81.733,261.600 82.200 M263.200 115.200 C 263.200 115.911,263.467 116.000,265.600 116.000 C 267.733 116.000,268.000 116.089,268.000 116.800 C 268.000 117.333,267.733 117.600,267.200 117.600 C 266.667 117.600,266.400 117.867,266.400 118.400 C 266.400 118.933,266.133 119.200,265.600 119.200 C 265.067 119.200,264.800 119.467,264.800 120.000 C 264.800 120.667,264.533 120.800,263.200 120.800 C 261.867 120.800,261.600 120.933,261.600 121.600 C 261.600 122.267,261.333 122.400,260.000 122.400 C 258.667 122.400,258.400 122.533,258.400 123.200 C 258.400 123.733,258.133 124.000,257.600 124.000 C 257.067 124.000,256.800 124.267,256.800 124.800 C 256.800 125.467,256.533 125.600,255.200 125.600 C 253.867 125.600,253.600 125.733,253.600 126.400 C 253.600 127.045,253.333 127.200,252.227 127.200 C 251.205 127.200,250.789 127.405,250.600 128.000 C 250.460 128.440,250.088 128.800,249.773 128.800 C 249.458 128.800,249.200 129.160,249.200 129.600 C 249.200 130.267,248.933 130.400,247.600 130.400 C 246.267 130.400,246.000 130.533,246.000 131.200 C 246.000 131.867,245.733 132.000,244.400 132.000 C 243.067 132.000,242.800 132.133,242.800 132.800 C 242.800 133.467,242.533 133.600,241.200 133.600 C 239.867 133.600,239.600 133.733,239.600 134.400 C 239.600 135.067,239.333 135.200,238.000 135.200 C 236.667 135.200,236.400 135.333,236.400 136.000 C 236.400 136.667,236.133 136.800,234.800 136.800 C 233.467 136.800,233.200 136.933,233.200 137.600 C 233.200 138.267,232.933 138.400,231.600 138.400 C 230.267 138.400,230.000 138.533,230.000 139.200 C 230.000 139.933,229.733 140.000,226.800 140.000 L 223.600 140.000 223.600 138.400 C 223.600 137.067,223.467 136.800,222.800 136.800 C 222.044 136.800,222.000 136.533,222.000 132.000 C 222.000 127.467,221.956 127.200,221.200 127.200 C 220.489 127.200,220.400 126.933,220.400 124.800 L 220.400 122.400 228.400 122.400 C 236.133 122.400,236.400 122.373,236.400 121.600 C 236.400 120.867,236.667 120.800,239.600 120.800 C 242.533 120.800,242.800 120.733,242.800 120.000 C 242.800 119.270,243.067 119.200,245.837 119.200 C 248.538 119.200,248.898 119.111,249.084 118.400 C 249.241 117.799,249.630 117.600,250.647 117.600 C 251.733 117.600,252.000 117.442,252.000 116.800 C 252.000 116.133,252.267 116.000,253.600 116.000 C 254.933 116.000,255.200 115.867,255.200 115.200 C 255.200 114.453,255.467 114.400,259.200 114.400 C 262.933 114.400,263.200 114.453,263.200 115.200 M359.600 148.400 C 359.600 148.933,359.867 149.200,360.400 149.200 C 361.067 149.200,361.200 149.467,361.200 150.800 C 361.200 152.133,361.333 152.400,362.000 152.400 C 362.533 152.400,362.800 152.667,362.800 153.200 C 362.800 153.733,362.533 154.000,362.000 154.000 C 361.333 154.000,361.200 154.267,361.200 155.600 C 361.200 156.933,361.067 157.200,360.400 157.200 C 359.867 157.200,359.600 157.467,359.600 158.000 C 359.600 158.533,359.333 158.800,358.800 158.800 C 358.267 158.800,358.000 159.067,358.000 159.600 C 358.000 160.133,357.733 160.400,357.200 160.400 C 356.667 160.400,356.400 160.667,356.400 161.200 C 356.400 161.970,356.133 162.000,349.400 162.000 L 342.400 162.000 342.400 160.400 C 342.400 159.067,342.533 158.800,343.200 158.800 C 343.733 158.800,344.000 158.533,344.000 158.000 C 344.000 157.467,344.267 157.200,344.800 157.200 C 345.333 157.200,345.600 156.933,345.600 156.400 C 345.600 155.867,345.867 155.600,346.400 155.600 C 346.933 155.600,347.200 155.333,347.200 154.800 C 347.200 154.267,347.467 154.000,348.000 154.000 C 348.533 154.000,348.800 153.733,348.800 153.200 C 348.800 152.756,349.067 152.400,349.400 152.400 C 349.733 152.400,350.000 152.044,350.000 151.600 C 350.000 151.067,350.267 150.800,350.800 150.800 C 351.333 150.800,351.600 150.533,351.600 150.000 C 351.600 149.467,351.867 149.200,352.400 149.200 C 352.933 149.200,353.200 148.933,353.200 148.400 C 353.200 147.667,353.467 147.600,356.400 147.600 C 359.333 147.600,359.600 147.667,359.600 148.400 " stroke="none" fill="#040404" fill-rule="evenodd"></path><path id="path1" d="" stroke="none" fill="#080404" fill-rule="evenodd"></path><path id="path2" d="" stroke="none" fill="#080404" fill-rule="evenodd"></path><path id="path3" d="" stroke="none" fill="#080404" fill-rule="evenodd"></path><path id="path4" d="" stroke="none" fill="#080404" fill-rule="evenodd"></path></g></svg>